<svg width="191" height="50" viewBox="0 0 191 50" fill="none" xmlns="http://www.w3.org/2000/svg">
<path d="M3.392 14.808L2.944 14.616C2.85867 14.6587 2.752 14.68 2.624 14.68C2.32533 14.68 1.92 14.6373 1.408 14.552C0.896 14.4667 0.64 14.232 0.64 13.848C0.64 13.1653 0.832 12.6107 1.216 12.184C1.6 11.7147 2.00533 11.3307 2.432 11.032L2.624 10.52L3.008 10.328L3.136 10.072H3.328L3.776 9.816L3.904 9.56L3.776 9.496C3.776 9.496 3.75467 9.432 3.712 9.304C3.712 9.13333 3.75467 9.02667 3.84 8.984C4.096 8.89867 4.33067 8.87733 4.544 8.92C4.75733 8.92 4.88533 8.83467 4.928 8.664C4.71467 8.36533 4.71467 8.216 4.928 8.216C5.01333 8.216 5.07733 8.19467 5.12 8.152C5.16267 8.06667 5.184 8.024 5.184 8.024C5.312 8.024 5.376 7.96 5.376 7.832L5.44 7.448C5.52533 7.23466 5.568 7.08533 5.568 7C5.61067 6.91467 5.696 6.82933 5.824 6.744C6.08 6.57333 6.208 6.50933 6.208 6.552C6.25067 6.552 6.35733 6.59466 6.528 6.68L6.656 6.296C6.69867 6.33867 6.76267 6.36 6.848 6.36C6.93333 6.36 6.95467 6.296 6.912 6.168C6.912 5.99733 6.912 5.89067 6.912 5.848C7.08267 5.72 7.14667 5.63467 7.104 5.592C7.104 5.54933 7.31733 5.50666 7.744 5.464C7.872 5.464 7.95733 5.4 8 5.272C8.04267 5.144 8.08533 5.016 8.128 4.888C8.128 4.84533 8.128 4.824 8.128 4.824C8.17067 4.824 8.192 4.824 8.192 4.824C8.27733 4.824 8.32 4.888 8.32 5.016C8.36267 5.144 8.34133 5.272 8.256 5.4C8.128 5.57067 8 5.76266 7.872 5.976C7.744 6.14666 7.57333 6.31733 7.36 6.488L6.912 7.064C6.48533 7.61867 6.10133 8.152 5.76 8.664C5.46133 9.176 5.14133 9.73067 4.8 10.328C4.62933 10.712 4.352 11.2453 3.968 11.928C3.62667 12.6107 3.43467 13.5707 3.392 14.808ZM19.184 35.608C18.8853 35.608 18.736 35.288 18.736 34.648C18.736 34.2213 18.8213 33.688 18.992 33.048C19.2053 32.4507 19.4613 31.7467 19.76 30.936C20.1013 30.6373 20.272 30.2533 20.272 29.784C20.3573 29.8267 20.4 29.8267 20.4 29.784C20.4427 29.6987 20.464 29.656 20.464 29.656C20.5493 29.528 20.592 29.4 20.592 29.272C20.592 29.1013 20.6133 28.952 20.656 28.824V28.696C20.4853 28.2693 20.4 27.9067 20.4 27.608L20.272 27.544C20.1867 27.288 20.1227 27.0107 20.08 26.712C20.08 26.4133 20.1013 26.136 20.144 25.88C20.1867 25.624 20.1653 25.496 20.08 25.496C20.0373 25.4533 20.016 25.3893 20.016 25.304C20.016 25.2187 20.016 25.1547 20.016 25.112C20.0587 25.0267 20.1013 24.8987 20.144 24.728C20.1867 24.6427 20.2507 24.4933 20.336 24.28C20.464 24.024 20.528 23.8747 20.528 23.832C20.528 23.7467 20.5067 23.6827 20.464 23.64C20.4213 23.5547 20.4 23.4907 20.4 23.448L20.592 23.192V22.744C20.6347 22.6587 20.656 22.552 20.656 22.424C20.6987 22.3387 20.7627 22.2747 20.848 22.232C20.9333 22.1467 20.9973 22.0827 21.04 22.04C21.1253 21.9547 21.1893 21.848 21.232 21.72C21.3173 21.5493 21.3813 21.4213 21.424 21.336C21.4667 21.2507 21.5093 21.1867 21.552 21.144C21.6373 21.0587 21.7013 20.952 21.744 20.824C21.8293 20.696 21.8933 20.5893 21.936 20.504C21.9787 20.376 22.0427 20.248 22.128 20.12L22.576 19.736C22.7467 19.5653 22.9173 19.48 23.088 19.48C23.2587 19.48 23.3653 19.6507 23.408 19.992L23.344 20.312L22.32 21.4C22.2347 21.4853 22.192 21.592 22.192 21.72C22.1493 21.7627 22.1067 21.8053 22.064 21.848C22.064 21.8907 22.0427 21.9547 22 22.04C22 22.1253 21.936 22.232 21.808 22.36L21.616 22.936C21.5307 22.936 21.488 22.9787 21.488 23.064C21.4453 23.1067 21.4027 23.3627 21.36 23.832C21.36 24.2587 21.36 24.5147 21.36 24.6H21.552C21.552 24.6427 21.552 24.7067 21.552 24.792C21.5947 24.8347 21.5947 24.8987 21.552 24.984V25.368C21.552 25.4533 21.5307 25.5387 21.488 25.624C21.488 25.624 21.4667 25.6453 21.424 25.688C21.424 25.688 21.424 25.7093 21.424 25.752C21.424 25.7947 21.4453 25.8587 21.488 25.944C21.5307 25.9867 21.552 26.0507 21.552 26.136C21.552 26.1787 21.5307 26.2213 21.488 26.264C21.488 26.264 21.488 26.2853 21.488 26.328C21.488 26.3707 21.5093 26.4133 21.552 26.456C21.5947 26.456 21.616 26.4773 21.616 26.52V26.584C21.9573 25.944 22.2773 25.2827 22.576 24.6C22.9173 23.9173 23.2587 23.2347 23.6 22.552C23.6853 22.3813 23.7707 22.3387 23.856 22.424C23.984 22.4667 24.0693 22.4453 24.112 22.36C24.1547 22.3173 24.176 22.2107 24.176 22.04C24.176 21.912 24.1547 21.784 24.112 21.656C24.112 21.528 24.176 21.3787 24.304 21.208L25.2 19.608C26.4373 17.3893 27.6747 15.256 28.912 13.208C30.192 11.16 31.3867 9.58133 32.496 8.472L32.688 8.344L32.88 8.024C32.88 8.024 32.9227 8.00267 33.008 7.96C33.0933 7.91733 33.1573 7.93866 33.2 8.024C33.2 8.06667 33.1573 8.152 33.072 8.28C33.0293 8.408 33.008 8.49333 33.008 8.536C33.136 8.74933 33.2853 8.77067 33.456 8.6C33.4987 8.51466 33.4987 8.32266 33.456 8.024C33.4133 7.72533 33.4133 7.576 33.456 7.576C33.5413 7.53333 33.584 7.53333 33.584 7.576C33.6267 7.61867 33.6693 7.64 33.712 7.64C33.7973 7.64 33.84 7.576 33.84 7.448C33.84 7.32 33.8613 7.23467 33.904 7.192C34.3733 7.02133 34.8 6.936 35.184 6.936C35.3973 6.936 35.696 7.04267 36.08 7.256C36.5067 7.46933 36.72 7.768 36.72 8.152C36.72 8.36533 36.6133 8.62133 36.4 8.92C36.3573 8.96267 36.3147 9.048 36.272 9.176C36.2293 9.26133 36.1653 9.34667 36.08 9.432C36.0373 9.47467 35.9947 9.496 35.952 9.496C35.952 9.45333 35.9093 9.45333 35.824 9.496C35.7813 9.53867 35.7173 9.56 35.632 9.56C35.5893 9.51733 35.5253 9.496 35.44 9.496C35.3547 9.496 35.3333 9.56 35.376 9.688C35.4613 9.816 35.4827 9.90133 35.44 9.944C35.3973 9.98667 35.3547 9.98667 35.312 9.944C35.2693 9.90133 35.2053 9.92267 35.12 10.008C35.0773 10.0507 35.0987 10.0933 35.184 10.136C35.312 10.136 35.3333 10.1787 35.248 10.264C34.992 10.52 34.672 10.7973 34.288 11.096C33.9467 11.352 33.6053 11.608 33.264 11.864C33.2213 11.9067 33.1787 11.9067 33.136 11.864C33.0933 11.7787 33.0507 11.7573 33.008 11.8L32.56 12.44C32.1333 12.8667 31.7067 13.3147 31.28 13.784C30.8533 14.2533 30.4053 14.7867 29.936 15.384C29.808 15.64 29.6587 15.8747 29.488 16.088C29.3173 16.3013 29.0827 16.3867 28.784 16.344C28.784 16.3867 28.8267 16.4507 28.912 16.536C28.9973 16.5787 28.9973 16.664 28.912 16.792C28.1867 17.816 27.4613 18.8827 26.736 19.992C26.0107 21.1013 25.328 22.2533 24.688 23.448C24.3893 23.96 24.0267 24.6213 23.6 25.432L23.024 26.584C22.9813 26.712 22.9173 26.776 22.832 26.776C22.7893 26.7333 22.7253 26.712 22.64 26.712C22.768 26.968 22.7893 27.2453 22.704 27.544C22.7467 27.544 22.768 27.5653 22.768 27.608C23.5787 28.1627 24.1547 28.5467 24.496 28.76C24.88 28.9733 25.52 29.1867 26.416 29.4C26.7573 29.4853 27.0987 29.592 27.44 29.72C27.7813 29.8053 28.144 29.848 28.528 29.848C28.5707 29.848 28.5707 29.8693 28.528 29.912C28.528 29.9547 28.5493 29.976 28.592 29.976C28.7627 29.976 28.9333 29.9973 29.104 30.04C29.2747 30.04 29.4453 30.04 29.616 30.04C29.6587 30.04 29.68 30.04 29.68 30.04C29.7227 29.9973 29.7653 29.976 29.808 29.976C29.8933 29.976 30.0213 30.0187 30.192 30.104C30.4907 30.104 30.8107 30.104 31.152 30.104C31.536 30.104 31.8773 30.0827 32.176 30.04C32.5173 29.9973 32.8373 29.9547 33.136 29.912C33.4773 29.8267 33.7973 29.7627 34.096 29.72C34.6933 29.6773 35.2693 29.5707 35.824 29.4C36.4213 29.1867 36.9973 28.9947 37.552 28.824C38.192 28.6107 38.8747 28.376 39.6 28.12C40.368 27.8213 41.1573 27.48 41.968 27.096C42.0533 27.0533 42.096 27.16 42.096 27.416C42.1387 27.6293 42.2027 27.7147 42.288 27.672C42.3733 27.6293 42.48 27.4587 42.608 27.16C42.7787 26.8613 42.8853 26.6907 42.928 26.648L43.504 25.88L44.016 25.304C44.1013 25.176 44.1867 25.0053 44.272 24.792C44.3573 24.5787 44.4213 24.408 44.464 24.28C44.592 23.9387 44.6987 23.576 44.784 23.192C44.8693 22.808 44.912 22.4027 44.912 21.976C44.912 21.7627 45.0187 21.656 45.232 21.656C45.4453 21.656 45.552 21.7627 45.552 21.976C45.552 22.1893 45.552 22.424 45.552 22.68C45.552 22.936 45.5093 23.1707 45.424 23.384C45.424 23.4267 45.3813 23.448 45.296 23.448C45.2533 23.4053 45.232 23.4053 45.232 23.448C45.1893 23.7467 45.1467 24.0667 45.104 24.408C45.0613 24.7067 44.9547 25.0053 44.784 25.304L44.4 25.944C45.296 25.4747 46.1493 24.984 46.96 24.472C47.8133 23.9173 48.5387 23.2987 49.136 22.616L49.712 21.976C49.7547 21.8907 49.8187 21.8267 49.904 21.784C49.9893 21.7413 50.0533 21.8053 50.096 21.976C49.968 22.104 49.9467 22.2747 50.032 22.488C50.2453 22.4453 50.3733 22.2533 50.416 21.912C50.4587 21.528 50.5227 21.1867 50.608 20.888C50.992 20.4187 51.376 19.9067 51.76 19.352C51.8027 19.3093 51.8667 19.288 51.952 19.288C52.1227 19.288 52.272 19.3093 52.4 19.352C52.528 19.3947 52.656 19.3307 52.784 19.16C52.6987 18.9467 52.6133 18.7973 52.528 18.712C52.4427 18.584 52.464 18.4133 52.592 18.2L52.784 17.88C52.9973 17.496 53.232 17.2187 53.488 17.048C53.744 16.8773 53.9147 16.5147 54 15.96C54.8107 14.5093 55.216 12.9307 55.216 11.224C55.216 9.26133 54.5973 7.448 53.36 5.784C52.1653 4.07733 50.3307 3.01067 47.856 2.584C47.7707 2.584 47.5147 2.52 47.088 2.392C46.704 2.22133 46.4693 2.136 46.384 2.136C46.2987 2.136 46.2133 2.136 46.128 2.136C46.0427 2.09333 45.9573 2.072 45.872 2.072C45.7013 2.072 45.5733 2.09333 45.488 2.136C45.4027 2.136 45.2107 2.09333 44.912 2.008C44.528 1.79467 44.0373 1.66666 43.44 1.624C42.8853 1.53867 42.5653 1.47467 42.48 1.432L41.328 1.688C41.1147 1.688 40.9013 1.688 40.688 1.688C40.5173 1.64533 40.3467 1.624 40.176 1.624C39.1947 1.624 38.384 1.70933 37.744 1.88C37.1467 2.008 36.6133 2.09333 36.144 2.136L33.52 2.392C33.264 2.264 33.0293 2.30667 32.816 2.52H32.752C32.4533 2.52 32.1547 2.56267 31.856 2.648C31.6 2.69066 31.3227 2.75466 31.024 2.84C30.8533 2.88267 30.6613 2.904 30.448 2.904C30.2773 2.904 30.0853 2.94667 29.872 3.032V3.096C29.7013 3.13866 29.5093 3.18133 29.296 3.224C29.1253 3.224 28.9333 3.26667 28.72 3.352H28.656C28.4853 3.43733 28.3147 3.52267 28.144 3.608C28.016 3.69333 27.8453 3.71467 27.632 3.672C27.4613 3.71467 27.2693 3.75733 27.056 3.8C26.8853 3.84267 26.6933 3.90667 26.48 3.992H26.352C26.224 3.992 26.096 3.864 25.968 3.608C25.84 3.352 25.776 3.18133 25.776 3.096C25.7333 3.352 25.6693 3.62933 25.584 3.928C25.5413 4.22667 25.392 4.376 25.136 4.376V4.44C24.8373 4.48266 24.56 4.568 24.304 4.696C24.048 4.824 23.7707 4.93067 23.472 5.016C23.3013 5.05866 23.1307 5.08 22.96 5.08C22.7893 5.03733 22.5973 5.016 22.384 5.016C22.2987 5.016 22.2133 5.03733 22.128 5.08C22.0427 5.08 21.9573 5.10133 21.872 5.144C21.744 5.18667 21.6587 5.272 21.616 5.4C21.616 5.528 21.5733 5.63467 21.488 5.72C21.3173 5.89067 21.104 6.01866 20.848 6.104C20.592 6.18933 20.3787 6.27467 20.208 6.36C20.1227 6.40267 19.9947 6.36 19.824 6.232C19.696 6.104 19.5893 6.08267 19.504 6.168C19.4613 6.21067 19.4187 6.31733 19.376 6.488C19.376 6.65867 19.3333 6.76533 19.248 6.808H19.184L17.648 7.512C17.4347 7.59733 17.1787 7.72533 16.88 7.896C16.5813 8.06667 16.3253 8.17333 16.112 8.216C16.0693 8.216 16.048 8.13067 16.048 7.96C16.048 7.78933 16.0053 7.74667 15.92 7.832C15.7067 7.91733 15.472 8.152 15.216 8.536C15.0027 8.87733 14.7893 9.112 14.576 9.24C14.3627 9.41067 14.1493 9.496 13.936 9.496C13.7227 9.496 13.5307 9.58133 13.36 9.752C13.232 9.83733 13.104 10.0293 12.976 10.328C12.8907 10.584 12.784 10.776 12.656 10.904L11.76 12.12C11.6747 12.2053 11.5893 12.2907 11.504 12.376C11.4187 12.4613 11.376 12.568 11.376 12.696C11.12 13.1227 10.992 13.6133 10.992 14.168C10.992 15.1067 11.312 15.7893 11.952 16.216C12.6347 16.6 13.3813 16.8987 14.192 17.112H14.256C14.5547 17.3253 14.832 17.4107 15.088 17.368C15.2587 17.2827 15.408 17.24 15.536 17.24C15.7067 17.24 15.856 17.3253 15.984 17.496L16.88 17.688C17.3493 17.816 17.584 17.944 17.584 18.072C17.584 18.1573 17.4773 18.2427 17.264 18.328C17.0933 18.3707 16.9013 18.392 16.688 18.392C15.9627 18.392 15.0667 18.2427 14 17.944C12.976 17.6453 12.0587 17.176 11.248 16.536C10.4373 15.8533 9.968 15.0213 9.84 14.04C9.84 13.9973 9.776 13.8907 9.648 13.72C9.56267 13.5493 9.49867 13.4 9.456 13.272C9.41333 13.0587 9.37067 12.8667 9.328 12.696C9.328 12.4827 9.328 12.2907 9.328 12.12C9.328 10.7547 9.86133 9.496 10.928 8.344C11.1413 8.13067 11.3333 7.98133 11.504 7.896C11.6747 7.81067 11.888 7.68267 12.144 7.512C12.3573 7.34133 12.464 7.21333 12.464 7.128C12.464 7 12.592 6.85067 12.848 6.68C13.1893 6.424 13.6373 6.168 14.192 5.912C14.7467 5.61333 15.1947 5.37867 15.536 5.208V5.144H15.664C15.8347 5.144 16.0053 5.05867 16.176 4.888C16.944 4.504 17.7547 4.16267 18.608 3.864C19.504 3.52267 20.4 3.20267 21.296 2.904C21.552 2.776 21.7867 2.712 22 2.712C22.2133 2.712 22.384 2.776 22.512 2.904C22.512 2.81867 22.512 2.75467 22.512 2.712C22.512 2.62666 22.5333 2.56266 22.576 2.52V2.456C23.5573 2.15733 24.5387 1.85867 25.52 1.56C26.5013 1.21867 27.4613 1.048 28.4 1.048H28.464C28.72 1.048 28.912 1.00533 29.04 0.919998L29.424 0.855999H29.488C29.744 0.941332 29.9787 0.898666 30.192 0.727999C31.2587 0.514666 32.2827 0.386665 33.264 0.343998C34.2453 0.301332 35.0773 0.258665 35.76 0.215998C35.888 0.258665 36.016 0.279999 36.144 0.279999C36.272 0.237331 36.3787 0.215998 36.464 0.215998L37.104 0.151999C37.232 0.151999 37.36 0.173332 37.488 0.215998C37.6587 0.215998 37.808 0.194665 37.936 0.151999L41.52 0.0879993H41.584C41.712 0.0879993 41.8187 0.151999 41.904 0.279999C42.032 0.365332 42.16 0.322666 42.288 0.151999C42.6293 0.151999 43.1413 0.215998 43.824 0.343998C44.5493 0.471999 45.2747 0.599999 46 0.727999C46.7253 0.813332 47.2587 0.898666 47.6 0.983999C48.24 1.112 49.136 1.41067 50.288 1.88C51.4827 2.30667 52.6773 2.968 53.872 3.864C55.0667 4.71733 56.0267 5.86933 56.752 7.32C57.52 8.728 57.7973 10.4987 57.584 12.632C57.5413 13.4 57.3707 14.1253 57.072 14.808C56.7733 15.4907 56.4533 16.1947 56.112 16.92L55.472 18.328C55.4293 18.3707 55.3653 18.4347 55.28 18.52C55.1947 18.5627 55.1093 18.6267 55.024 18.712C54.9813 18.84 54.9173 18.9467 54.832 19.032C54.7467 19.0747 54.6613 19.16 54.576 19.288C54.4053 19.544 54.2133 19.8 54 20.056C53.7867 20.2693 53.5733 20.5253 53.36 20.824L53.232 21.016C52.6347 21.9547 51.888 22.808 50.992 23.576C50.096 24.3013 49.2 24.9627 48.304 25.56V25.624C48.2187 25.6667 48.112 25.7307 47.984 25.816C47.8987 25.8587 47.8133 25.9227 47.728 26.008L47.664 26.072H47.6C47.5147 26.1147 47.408 26.1573 47.28 26.2C47.152 26.2427 47.0453 26.3493 46.96 26.52C46.7893 26.648 46.6187 26.712 46.448 26.712C45.8933 27.0107 45.3813 27.2667 44.912 27.48C44.4427 27.6507 44.0373 27.8213 43.696 27.992C43.696 28.0773 43.632 28.2053 43.504 28.376C43.376 28.5467 43.2693 28.6747 43.184 28.76C42.4587 29.3573 41.968 29.848 41.712 30.232C41.456 30.616 41.136 30.9147 40.752 31.128C40.7093 31.1707 40.6453 31.192 40.56 31.192C40.3893 31.192 40.2613 31.256 40.176 31.384C40.0907 31.512 40.0053 31.64 39.92 31.768C39.7067 31.9813 39.28 32.1947 38.64 32.408C38.0427 32.6213 37.5947 32.8347 37.296 33.048C37.168 33.0907 37.0187 33.1333 36.848 33.176C36.72 33.2613 36.656 33.304 36.656 33.304H36.336C36.2933 33.304 36.208 33.3467 36.08 33.432C35.952 33.56 35.8453 33.6453 35.76 33.688C35.6747 33.7307 35.5893 33.752 35.504 33.752C35.4187 33.752 35.3547 33.7947 35.312 33.88C35.0987 33.88 34.864 33.9227 34.608 34.008C34.5653 34.008 34.352 34.008 33.968 34.008C33.584 34.0507 33.3493 34.0933 33.264 34.136C33.2213 34.1787 33.072 34.2427 32.816 34.328C32.56 34.4133 32.3893 34.456 32.304 34.456C32.2613 34.456 32.2187 34.4347 32.176 34.392C32.1333 34.392 32.0693 34.4133 31.984 34.456C31.9413 34.5413 31.8773 34.584 31.792 34.584C31.7493 34.584 31.664 34.5627 31.536 34.52C31.4507 34.52 31.3653 34.52 31.28 34.52C31.2373 34.4773 31.152 34.4987 31.024 34.584C30.9387 34.6693 30.8533 34.712 30.768 34.712C30.7253 34.712 30.6827 34.6907 30.64 34.648C30.64 34.648 30.6187 34.648 30.576 34.648C30.4907 34.648 30.4053 34.6693 30.32 34.712C30.2347 34.7547 30.1493 34.776 30.064 34.776C29.7653 34.776 29.488 34.7547 29.232 34.712C28.976 34.6693 28.72 34.648 28.464 34.648C28.4213 34.648 28.2933 34.584 28.08 34.456C27.9093 34.328 27.8027 34.264 27.76 34.264C27.4613 34.264 27.1627 34.2427 26.864 34.2C26.608 34.2 26.352 34.1787 26.096 34.136C26.0533 34.136 26.0107 34.0933 25.968 34.008C25.968 33.9653 25.9253 33.944 25.84 33.944H25.712C25.6693 33.944 25.5627 33.9013 25.392 33.816C25.264 33.7307 25.1787 33.6667 25.136 33.624L25.072 33.56C24.9013 33.5173 24.7947 33.4533 24.752 33.368C24.752 33.2827 24.7093 33.24 24.624 33.24C24.5813 33.24 24.56 33.24 24.56 33.24C24.56 33.2827 24.5387 33.304 24.496 33.304C24.4107 33.304 24.368 33.2613 24.368 33.176C24.24 33.0907 24.0267 32.984 23.728 32.856C23.472 32.728 23.3013 32.5787 23.216 32.408C23.0453 32.3653 22.9387 32.3227 22.896 32.28C22.896 32.2373 22.8533 32.152 22.768 32.024L22.512 31.896L21.872 31.32C21.872 31.192 21.8507 31.128 21.808 31.128L21.616 31C21.616 30.8293 21.552 30.744 21.424 30.744C21.3387 30.488 21.296 30.36 21.296 30.36C20.912 31.2133 20.5707 32.0453 20.272 32.856C20.016 33.6667 19.7813 34.4133 19.568 35.096C19.4827 35.4373 19.3547 35.608 19.184 35.608ZM30.384 33.688C30.4693 33.688 30.5333 33.6667 30.576 33.624C30.6613 33.5813 30.7253 33.5387 30.768 33.496H31.024C31.3227 33.3253 31.472 33.3253 31.472 33.496C31.472 33.6667 31.5787 33.6667 31.792 33.496H32.112C32.1547 33.368 32.2187 33.304 32.304 33.304C32.432 33.304 32.5173 33.2827 32.56 33.24C32.6453 33.24 32.688 33.1973 32.688 33.112C32.7307 33.0693 32.816 33.048 32.944 33.048C32.9867 33.048 33.0507 33.0907 33.136 33.176C33.3067 33.176 33.648 33.0907 34.16 32.92C34.7147 32.7493 35.0133 32.664 35.056 32.664C35.0987 32.7067 35.1627 32.664 35.248 32.536C35.376 32.408 35.4613 32.3653 35.504 32.408C35.504 32.3653 35.568 32.3227 35.696 32.28C35.824 32.28 35.9093 32.2587 35.952 32.216C36.208 32.088 36.4213 32.024 36.592 32.024C36.6347 31.9813 36.7413 31.896 36.912 31.768C37.1253 31.6827 37.232 31.6187 37.232 31.576C37.3173 31.4907 37.4453 31.4267 37.616 31.384C37.7867 31.3413 37.8933 31.2987 37.936 31.256C38.064 31.256 38.4907 31.0427 39.216 30.616C39.984 30.1467 40.688 29.592 41.328 28.952C40.6027 29.208 39.8987 29.4213 39.216 29.592C38.576 29.72 38.2347 29.784 38.192 29.784C38.1067 29.8693 38.0427 29.912 38 29.912C37.8293 29.8267 37.744 29.784 37.744 29.784L37.68 29.848C37.6373 29.848 37.5947 29.8693 37.552 29.912C37.5093 29.9547 37.424 29.976 37.296 29.976C37.2533 29.9333 37.1253 29.976 36.912 30.104C36.7413 30.1893 36.6347 30.232 36.592 30.232C36.5493 30.232 36.4853 30.2533 36.4 30.296C36.3573 30.296 36.2933 30.2747 36.208 30.232C36.0373 30.4027 35.5893 30.5307 34.864 30.616C34.1813 30.6587 33.7333 30.68 33.52 30.68H33.456C33.4133 30.6373 33.3493 30.6373 33.264 30.68C33.2213 30.68 33.1573 30.68 33.072 30.68C33.072 30.7227 33.0507 30.7653 33.008 30.808H32.624C32.4533 30.808 32.2827 30.8293 32.112 30.872C31.984 30.9147 31.8347 30.936 31.664 30.936L31.6 30.872C31.5573 30.872 31.4933 30.8933 31.408 30.936C31.3227 30.9787 31.2587 31 31.216 31C31.1733 31 31.1307 30.9787 31.088 30.936C31.088 30.8507 31.0453 30.808 30.96 30.808C30.9173 30.808 30.8533 30.8507 30.768 30.936C30.7253 30.9787 30.6827 30.9787 30.64 30.936H30.384C30.256 30.936 30.192 30.936 30.192 30.936C30.1493 30.936 30.1067 30.9573 30.064 31C30.064 31 30.0427 31 30 31C30 31 29.9573 30.9573 29.872 30.872C29.8293 30.872 29.744 30.9147 29.616 31C29.5307 31.0427 29.4453 31.0427 29.36 31H29.232C29.1467 30.9147 29.104 30.872 29.104 30.872C29.0613 30.872 29.04 30.8933 29.04 30.936H28.464C28.208 30.936 27.952 30.8507 27.696 30.68C27.44 30.5093 27.2053 30.424 26.992 30.424C26.9493 30.424 26.9067 30.4453 26.864 30.488C26.864 30.488 26.8427 30.488 26.8 30.488C26.7573 30.488 26.7147 30.488 26.672 30.488C26.672 30.4453 26.6507 30.424 26.608 30.424C26.608 30.424 26.5867 30.424 26.544 30.424C26.544 30.424 26.5227 30.4453 26.48 30.488C26.48 30.4453 26.4587 30.424 26.416 30.424C26.416 30.3813 26.416 30.36 26.416 30.36L25.84 30.232C25.84 30.104 25.7973 30.04 25.712 30.04C25.6693 29.912 25.392 29.784 24.88 29.656C24.368 29.528 24.0693 29.4427 23.984 29.4C23.9413 29.4 23.856 29.3573 23.728 29.272C23.6427 29.1867 23.6 29.1653 23.6 29.208H23.536C23.408 29.208 23.2373 29.1227 23.024 28.952C22.8533 28.7387 22.6827 28.6107 22.512 28.568C22.384 28.44 22.32 28.312 22.32 28.184H22.256L22.192 28.248L22.064 28.632C22.064 28.6747 22.0853 28.76 22.128 28.888C22.1707 29.016 22.1707 29.1227 22.128 29.208C22.2133 29.2933 22.256 29.4 22.256 29.528C22.256 29.6133 22.2987 29.6773 22.384 29.72C22.4267 29.848 22.4693 29.976 22.512 30.104C22.5973 30.232 22.6613 30.36 22.704 30.488C22.704 30.5307 22.8107 30.616 23.024 30.744C23.2373 30.8293 23.344 30.9147 23.344 31C23.3867 31.0427 23.4293 31.0853 23.472 31.128C23.5573 31.1707 23.6 31.2347 23.6 31.32C23.6427 31.3627 23.6853 31.4267 23.728 31.512C23.7707 31.5973 23.792 31.6827 23.792 31.768C23.8773 31.768 23.9413 31.7893 23.984 31.832C24.0267 31.9173 24.1333 32.0453 24.304 32.216C24.4747 32.4293 24.6027 32.5573 24.688 32.6C24.7307 32.6 24.752 32.5787 24.752 32.536C24.752 32.536 24.7733 32.536 24.816 32.536C24.9013 32.5787 25.008 32.664 25.136 32.792C25.264 32.9627 25.3493 33.048 25.392 33.048C25.4773 33.048 25.52 33.048 25.52 33.048C25.8613 33.0907 26.2027 33.1333 26.544 33.176C26.8853 33.2613 27.2267 33.3253 27.568 33.368C27.6107 33.368 27.6747 33.3893 27.76 33.432C27.8453 33.5173 27.952 33.56 28.08 33.56C28.4213 33.6027 28.8267 33.624 29.296 33.624C29.808 33.624 30.1493 33.624 30.32 33.624L30.384 33.688ZM60.2805 31.128C59.2138 31.128 58.2752 30.8293 57.4645 30.232C56.6538 29.6347 56.2485 28.6107 56.2485 27.16C56.2485 26.6053 56.3125 26.0507 56.4405 25.496C56.5685 24.8987 56.7178 24.3227 56.8885 23.768C56.9738 23.2133 57.1018 22.7227 57.2725 22.296C57.3152 22.1253 57.3365 22.04 57.3365 22.04C57.3792 21.9973 57.4858 21.9333 57.6565 21.848L58.1685 21.08V20.824C58.1258 20.824 58.1045 20.824 58.1045 20.824C58.1045 20.7813 58.1045 20.76 58.1045 20.76C58.1045 20.632 58.2112 20.4827 58.4245 20.312C58.6378 20.1413 58.7445 20.056 58.7445 20.056C58.7872 19.8427 58.8512 19.736 58.9365 19.736C59.0218 19.736 59.1285 19.672 59.2565 19.544H59.9605V19.416C59.9605 19.2027 59.8538 19.1173 59.6405 19.16C59.4698 19.16 59.3845 19.1387 59.3845 19.096C59.3845 19.0533 59.4485 18.968 59.5765 18.84C59.7472 18.6693 59.8538 18.5627 59.8965 18.52C60.0245 18.3493 60.1312 18.2 60.2165 18.072C60.3018 17.9013 60.4298 17.7733 60.6005 17.688C61.3685 16.7493 61.8378 16.152 62.0085 15.896C62.2218 15.64 62.4352 15.448 62.6485 15.32C62.7338 15.32 62.7978 15.3627 62.8405 15.448C62.9258 15.4907 62.9258 15.5547 62.8405 15.64C62.9258 15.768 62.9898 15.7893 63.0325 15.704C63.1178 15.6187 63.1605 15.576 63.1605 15.576L63.4165 15.448C63.3312 15.3627 63.2885 15.256 63.2885 15.128C63.2885 14.9147 63.3312 14.744 63.4165 14.616C63.5018 14.4453 63.6512 14.2747 63.8645 14.104C64.1205 13.9333 64.2485 13.8267 64.2485 13.784C64.5045 13.6987 64.6965 13.6133 64.8245 13.528C64.9952 13.4427 65.1658 13.4 65.3365 13.4C65.6352 13.4 65.9338 13.5067 66.2325 13.72C67.0432 14.1467 67.7258 14.5733 68.2805 15C68.8352 15.4267 69.1125 16.024 69.1125 16.792C69.1125 17.6027 68.7712 18.3067 68.0885 18.904C67.4485 19.4587 66.6592 19.928 65.7205 20.312C64.7818 20.696 63.8432 21.016 62.9045 21.272C62.0085 21.4853 61.3045 21.656 60.7925 21.784C60.4938 21.8267 60.3445 21.9547 60.3445 22.168C60.3872 22.3387 60.3658 22.5307 60.2805 22.744L59.8325 23.448L59.4485 24.344L59.1285 24.92C58.8298 25.176 58.7232 25.368 58.8085 25.496C58.8938 25.624 59.0432 25.6027 59.2565 25.432C59.2992 25.4747 59.3205 25.5387 59.3205 25.624C59.3205 25.7947 59.2778 26.008 59.1925 26.264C59.1072 26.4773 59.0432 26.648 59.0005 26.776C58.9578 26.9467 58.9578 27.032 59.0005 27.032C59.0858 26.9893 59.1285 27.0747 59.1285 27.288L59.1925 28.184C59.4485 28.9947 60.0245 29.464 60.9205 29.592C61.0058 29.592 61.0912 29.6133 61.1765 29.656C61.3045 29.656 61.4112 29.656 61.4965 29.656C62.2645 29.656 62.6698 29.592 62.7125 29.464C62.7978 29.336 62.9045 29.2507 63.0325 29.208C63.4165 29.1227 63.7365 29.0373 63.9925 28.952C64.2912 28.8667 64.5898 28.7387 64.8885 28.568C65.4005 28.3547 65.8912 28.0773 66.3605 27.736C66.8298 27.3947 67.3205 27.0533 67.8325 26.712L68.4725 26.264C68.5152 26.1787 68.5152 26.1147 68.4725 26.072C68.4298 26.0293 68.4298 25.9867 68.4725 25.944C68.5578 25.9013 68.6218 25.9013 68.6645 25.944C68.7498 25.944 68.8138 25.9227 68.8565 25.88C68.9418 25.8373 69.0272 25.7733 69.1125 25.688C69.1978 25.56 69.2832 25.4533 69.3685 25.368C69.4538 25.2827 69.4965 25.1973 69.4965 25.112C69.5392 25.0267 69.6032 24.9413 69.6885 24.856C70.0298 24.5147 70.3712 24.152 70.7125 23.768C71.0965 23.384 71.4165 23.0427 71.6725 22.744C71.9712 22.3173 72.2058 22.104 72.3765 22.104C72.4618 22.104 72.5045 22.1467 72.5045 22.232C72.5045 22.4453 72.3552 22.7653 72.0565 23.192C71.3312 24.2587 70.4992 25.304 69.5605 26.328C68.6218 27.3093 67.5978 28.2053 66.4885 29.016C65.6778 29.5707 64.7178 30.0613 63.6085 30.488C62.4992 30.9147 61.3898 31.128 60.2805 31.128ZM61.2405 20.824C61.8805 20.7813 62.7125 20.6107 63.7365 20.312C64.7605 19.9707 65.6138 19.5227 66.2965 18.968C67.0218 18.3707 67.3845 17.7093 67.3845 16.984C67.3845 16.3013 67.0218 15.64 66.2965 15C65.6992 15.4267 65.0378 16.0453 64.3125 16.856C63.6298 17.624 63.0112 18.392 62.4565 19.16C61.9018 19.8853 61.4965 20.44 61.2405 20.824ZM113.995 34.904C113.739 34.904 113.483 34.8827 113.227 34.84C112.971 34.84 112.694 34.8187 112.395 34.776C112.352 34.776 112.246 34.712 112.075 34.584C111.904 34.4987 111.776 34.456 111.691 34.456C111.435 34.456 111.158 34.4347 110.859 34.392C110.603 34.392 110.326 34.3707 110.027 34.328C109.984 34.2853 109.942 34.2213 109.899 34.136C109.899 34.0933 109.856 34.072 109.771 34.072C109.728 34.072 109.707 34.072 109.707 34.072C109.75 34.1147 109.75 34.136 109.707 34.136C109.664 34.136 109.558 34.0933 109.387 34.008C109.259 33.9227 109.152 33.8587 109.067 33.816V33.688C108.896 33.6453 108.79 33.5813 108.747 33.496C108.704 33.4533 108.662 33.432 108.619 33.432H108.491C108.406 33.432 108.363 33.4107 108.363 33.368C108.192 33.2827 107.979 33.1547 107.723 32.984C107.467 32.856 107.296 32.728 107.211 32.6C107.04 32.5573 106.934 32.4933 106.891 32.408C106.848 32.3653 106.784 32.3013 106.699 32.216C106.656 32.1307 106.614 32.088 106.571 32.088C106.571 32.1307 106.55 32.1307 106.507 32.088C106.336 31.832 106.123 31.6187 105.867 31.448C105.867 31.4053 105.846 31.3627 105.803 31.32C105.803 31.32 105.803 31.2987 105.803 31.256C105.718 31.256 105.654 31.2347 105.611 31.192C105.568 31.1067 105.547 31.0427 105.547 31C105.547 30.9147 105.504 30.872 105.419 30.872C105.376 30.6587 105.312 30.5093 105.227 30.424C105.142 30.3387 105.056 30.2107 104.971 30.04C104.928 29.9547 104.907 29.8693 104.907 29.784C104.907 29.656 104.864 29.592 104.779 29.592V29.528C104.822 29.4427 104.758 29.208 104.587 28.824C104.459 28.3973 104.395 28.0347 104.395 27.736L104.267 27.672C104.139 27.4587 104.054 27.2027 104.011 26.904C104.011 26.6053 104.032 26.3067 104.075 26.008C104.16 25.6667 104.16 25.5173 104.075 25.56C103.99 25.6027 103.99 25.3893 104.075 24.92L104.523 24.024C104.523 23.9387 104.502 23.8533 104.459 23.768C104.416 23.6827 104.395 23.6187 104.395 23.576C104.395 23.5333 104.416 23.4907 104.459 23.448C104.502 23.4053 104.523 23.3627 104.523 23.32C104.566 23.2347 104.587 23.1067 104.587 22.936C104.587 22.7653 104.608 22.6587 104.651 22.616C104.694 22.5307 104.758 22.4667 104.843 22.424C104.928 22.3387 104.992 22.2747 105.035 22.232L105.355 21.464C105.44 21.3787 105.504 21.3147 105.547 21.272C105.632 21.1867 105.696 21.1013 105.739 21.016C105.824 20.888 105.888 20.7813 105.931 20.696C105.974 20.568 106.038 20.44 106.123 20.312C106.166 20.2267 106.23 20.1413 106.315 20.056C106.443 19.9707 106.528 19.9067 106.571 19.864C106.784 19.736 106.955 19.672 107.083 19.672C107.254 19.672 107.36 19.8427 107.403 20.184L107.339 20.504C107.168 20.7173 106.998 20.9093 106.827 21.08C106.656 21.208 106.464 21.3573 106.251 21.528C106.251 21.5707 106.23 21.6347 106.187 21.72C106.187 21.7627 106.187 21.8267 106.187 21.912C106.102 21.912 106.059 21.9547 106.059 22.04C106.059 22.0827 106.038 22.1467 105.995 22.232C105.995 22.2747 105.931 22.36 105.803 22.488C105.76 22.5733 105.718 22.68 105.675 22.808C105.675 22.8933 105.654 22.9787 105.611 23.064L105.419 23.192L105.355 24.728C105.398 24.7707 105.44 24.7707 105.483 24.728C105.526 24.8133 105.547 24.9413 105.547 25.112V25.176L105.483 25.24V25.752C105.44 25.7947 105.419 25.8373 105.419 25.88C105.419 25.9227 105.44 25.9867 105.483 26.072C105.526 26.1147 105.547 26.1787 105.547 26.264C105.504 26.3067 105.483 26.3707 105.483 26.456C105.483 26.5413 105.526 26.6267 105.611 26.712V26.904C105.696 27.032 105.803 27.16 105.931 27.288C106.059 27.3733 106.166 27.4587 106.251 27.544L106.763 27.736C107.531 28.2907 108.107 28.6747 108.491 28.888C108.875 29.1013 109.515 29.336 110.411 29.592C110.752 29.6773 111.094 29.784 111.435 29.912C111.776 29.9973 112.118 30.04 112.459 30.04C112.502 30.04 112.523 30.0613 112.523 30.104C112.523 30.104 112.544 30.104 112.587 30.104C112.758 30.104 112.907 30.1253 113.035 30.168C113.206 30.2107 113.376 30.232 113.547 30.232C113.59 30.232 113.632 30.232 113.675 30.232C113.718 30.1893 113.76 30.168 113.803 30.168C113.888 30.168 113.952 30.1893 113.995 30.232C114.038 30.232 114.08 30.232 114.123 30.232C114.464 30.232 114.806 30.232 115.147 30.232C115.488 30.232 115.808 30.2107 116.107 30.168C116.448 30.168 116.79 30.1253 117.131 30.04C117.472 29.9547 117.792 29.912 118.091 29.912C118.688 29.8693 119.264 29.7627 119.819 29.592C120.416 29.3787 120.992 29.1867 121.547 29.016C121.59 28.9733 121.952 28.824 122.635 28.568C123.36 28.2693 124.107 27.9493 124.875 27.608C125.046 27.096 125.131 26.4773 125.131 25.752C125.131 24.5573 124.875 23.4907 124.363 22.552C124.363 22.552 124.256 22.488 124.043 22.36C123.83 22.1893 123.702 22.104 123.659 22.104V21.976C123.659 21.7627 123.552 21.656 123.339 21.656C123.126 21.6133 122.934 21.4853 122.763 21.272C122.678 21.144 122.571 21.0373 122.443 20.952V20.888C122.315 20.8027 122.294 20.7387 122.379 20.696C122.507 20.6107 122.592 20.5467 122.635 20.504L122.507 20.376H122.443C122.358 20.2907 122.251 20.2267 122.123 20.184C121.995 20.1413 121.888 20.056 121.803 19.928L121.483 19.672C121.44 19.5867 121.355 19.544 121.227 19.544C121.099 19.544 120.992 19.5227 120.907 19.48C120.736 19.352 120.544 19.2027 120.331 19.032C120.118 18.8613 119.904 18.7333 119.691 18.648H119.627C119.456 18.5627 119.286 18.456 119.115 18.328C118.987 18.2 118.816 18.0933 118.603 18.008C118.56 17.9227 118.496 17.9227 118.411 18.008C118.368 18.0507 118.326 18.0507 118.283 18.008C118.112 17.9227 117.963 17.7947 117.835 17.624C117.707 17.4107 117.536 17.304 117.323 17.304H117.259C117.131 17.2187 117.024 17.0907 116.939 16.92C116.896 16.7067 116.832 16.5573 116.747 16.472C116.363 16.2587 115.979 16.1093 115.595 16.024C115.211 15.9387 114.827 15.832 114.443 15.704C114.187 15.576 113.867 15.512 113.483 15.512C113.142 15.4693 112.864 15.4267 112.651 15.384C112.395 15.2987 112.267 15.1707 112.267 15C112.267 14.7867 112.48 14.5733 112.907 14.36C113.078 14.2747 113.27 14.232 113.483 14.232C113.696 14.1893 113.888 14.168 114.059 14.168C114.528 14.168 115.254 14.04 116.235 13.784C117.259 13.528 118.411 13.1867 119.691 12.76C120.971 12.2907 122.208 11.8 123.403 11.288C123.659 11.2027 123.851 11.1173 123.979 11.032C124.15 10.9467 124.278 10.968 124.363 11.096C124.278 11.096 124.235 11.16 124.235 11.288C124.448 11.288 124.576 11.224 124.619 11.096C124.704 10.9253 124.79 10.7547 124.875 10.584H124.939L126.155 9.944C126.326 9.90133 126.475 9.92267 126.603 10.008C126.774 10.0507 126.923 10.0293 127.051 9.944C127.008 9.85866 126.944 9.79467 126.859 9.752C126.816 9.66667 126.859 9.58133 126.987 9.496C127.072 9.41066 127.136 9.368 127.179 9.368C127.435 9.19733 127.67 9.09067 127.883 9.048C128.139 8.96266 128.331 8.792 128.459 8.536C129.142 8.06667 129.718 7.576 130.187 7.064C130.656 6.50933 130.891 5.99733 130.891 5.528C130.891 4.93066 130.464 4.41866 129.611 3.992C128.8 3.52267 127.328 3.13866 125.195 2.84C125.11 2.84 125.024 2.84 124.939 2.84C124.854 2.79733 124.768 2.776 124.683 2.776C124.128 2.776 123.595 2.648 123.083 2.392C123.126 2.56267 123.04 2.648 122.827 2.648C122.23 2.60533 121.632 2.584 121.035 2.584C120.438 2.54133 119.862 2.52 119.307 2.52C118.368 2.52 117.494 2.54133 116.683 2.584C115.915 2.62667 115.36 2.66933 115.019 2.712C114.678 2.75467 114.315 2.79733 113.931 2.84C113.59 2.84 113.248 2.88266 112.907 2.968C112.651 2.88266 112.395 2.92533 112.139 3.096H112.075C111.776 3.13866 111.478 3.18133 111.179 3.224C110.88 3.26667 110.56 3.33066 110.219 3.416C110.048 3.45867 109.856 3.50133 109.643 3.544C109.43 3.544 109.216 3.58667 109.003 3.672L107.723 3.928C107.552 4.056 107.36 4.16267 107.147 4.248C106.976 4.29067 106.784 4.29067 106.571 4.248H106.507L105.291 4.568H105.227C105.099 4.568 104.95 4.48267 104.779 4.312C104.651 4.09867 104.566 3.90667 104.523 3.736C104.48 3.992 104.416 4.26933 104.331 4.568C104.246 4.86667 104.096 5.016 103.883 5.016L102.091 5.592C101.92 5.63467 101.728 5.656 101.515 5.656C101.302 5.656 101.088 5.656 100.875 5.656C100.662 5.656 100.491 5.67733 100.363 5.72C100.235 5.76267 100.15 5.86933 100.107 6.04C100.107 6.168 100.043 6.27467 99.915 6.36C99.7443 6.53067 99.531 6.65867 99.275 6.744C99.019 6.78667 98.7843 6.85067 98.571 6.936H98.507C98.4217 6.936 98.2937 6.89333 98.123 6.808C97.995 6.72267 97.8883 6.70133 97.803 6.744C97.7603 6.78667 97.7177 6.89333 97.675 7.064C97.6323 7.23467 97.5683 7.34133 97.483 7.384V7.448C97.227 7.53333 96.9497 7.64 96.651 7.768C96.3523 7.896 96.075 8.024 95.819 8.152C95.563 8.28 95.2643 8.42933 94.923 8.6C94.6243 8.728 94.3683 8.81333 94.155 8.856C94.0697 8.856 94.027 8.77067 94.027 8.6C94.0697 8.42933 94.0483 8.38667 93.963 8.472C93.707 8.6 93.451 8.83467 93.195 9.176C92.939 9.51733 92.7043 9.752 92.491 9.88C92.2777 10.0507 92.043 10.136 91.787 10.136C91.5737 10.136 91.3603 10.2213 91.147 10.392C91.019 10.52 90.891 10.7333 90.763 11.032C90.6777 11.288 90.571 11.48 90.443 11.608C90.1017 11.9493 89.7603 12.3547 89.419 12.824C89.3763 12.9093 89.3123 12.9947 89.227 13.08C89.1417 13.1653 89.099 13.272 89.099 13.4H89.035C88.779 13.912 88.651 14.4027 88.651 14.872C88.651 15.8107 88.9923 16.4933 89.675 16.92C90.4003 17.3467 91.211 17.6667 92.107 17.88C92.2777 17.9227 92.427 17.9867 92.555 18.072C92.7257 18.1573 92.8963 18.1787 93.067 18.136C93.2377 18.0507 93.387 18.008 93.515 18.008C93.7283 18.008 93.899 18.0933 94.027 18.264L94.987 18.456C95.499 18.584 95.755 18.712 95.755 18.84C95.755 18.9253 95.627 19.0107 95.371 19.096C95.1577 19.1387 94.9443 19.16 94.731 19.16C93.963 19.16 93.0243 19.0107 91.915 18.712C90.8057 18.3707 89.803 17.88 88.907 17.24C88.011 16.5573 87.499 15.7253 87.371 14.744C87.371 14.7013 87.307 14.5947 87.179 14.424C87.0937 14.2533 87.0297 14.104 86.987 13.976C86.859 13.592 86.795 13.208 86.795 12.824C86.795 12.0987 86.9443 11.416 87.243 10.776C87.5843 10.136 88.0323 9.53867 88.587 8.984C88.8003 8.77067 88.9923 8.62133 89.163 8.536C89.3763 8.45067 89.611 8.32267 89.867 8.152C90.123 7.98133 90.251 7.832 90.251 7.704C90.251 7.576 90.379 7.42667 90.635 7.256C90.9763 7.04267 91.4457 6.78667 92.043 6.488C92.683 6.18933 93.1737 5.95467 93.515 5.784C93.771 5.784 94.0057 5.67733 94.219 5.464C95.0723 5.08 95.9683 4.73867 96.907 4.44C97.8457 4.09867 98.7843 3.77867 99.723 3.48C99.979 3.352 100.235 3.288 100.491 3.288C100.747 3.288 100.939 3.352 101.067 3.48C101.067 3.39467 101.046 3.33067 101.003 3.288C101.003 3.20266 101.046 3.13866 101.131 3.096C102.198 2.75466 103.264 2.47733 104.331 2.264C105.398 2.008 106.422 1.79467 107.403 1.624H107.467C107.595 1.624 107.787 1.58133 108.043 1.496H108.107C108.192 1.496 108.256 1.496 108.299 1.496C108.384 1.45333 108.47 1.432 108.555 1.432C108.811 1.56 109.067 1.51733 109.323 1.304C110.475 1.09067 111.542 0.941332 112.523 0.855999C113.504 0.727998 114.336 0.663998 115.019 0.663998H115.211C115.296 0.663998 115.382 0.663998 115.467 0.663998C115.595 0.621332 115.702 0.599998 115.787 0.599998H116.427C116.555 0.557332 116.683 0.557332 116.811 0.599998C116.982 0.599998 117.11 0.599998 117.195 0.599998H117.259C117.771 0.599998 118.304 0.621332 118.859 0.663998C119.456 0.663998 120.054 0.663998 120.651 0.663998H120.715C120.886 0.706665 121.014 0.770665 121.099 0.855999C121.227 0.941332 121.376 0.898666 121.547 0.727999C122.699 0.770665 123.851 0.898665 125.003 1.112C125.643 1.19733 126.411 1.368 127.307 1.624C128.246 1.83733 129.142 2.15733 129.995 2.584C130.848 2.968 131.552 3.45866 132.107 4.056C132.704 4.65333 133.003 5.37867 133.003 6.232C133.003 6.57333 132.939 6.936 132.811 7.32C132.683 7.704 132.448 8.06667 132.107 8.408C131.766 8.70667 131.424 9.02667 131.083 9.368L130.315 10.072L129.867 10.2L129.355 10.456C128.416 10.8827 127.392 11.3733 126.283 11.928C125.174 12.44 124 12.8453 122.763 13.144L122.187 13.272H122.123V13.336H122.059C121.974 13.3787 121.867 13.4 121.739 13.4C121.611 13.3573 121.483 13.3787 121.355 13.464C119.264 14.0187 117.28 14.4027 115.403 14.616C114.976 14.6587 114.763 14.744 114.763 14.872C114.763 14.9573 114.912 15.064 115.211 15.192C115.552 15.2773 115.808 15.3627 115.979 15.448C116.79 15.704 117.643 15.9813 118.539 16.28C119.435 16.536 120.352 16.856 121.291 17.24C121.547 17.2827 121.803 17.368 122.059 17.496C122.358 17.624 122.571 17.816 122.699 18.072C122.742 17.9867 122.806 17.9653 122.891 18.008C122.976 18.0507 123.04 18.072 123.083 18.072C123.638 18.328 124.171 18.6053 124.683 18.904C125.195 19.2027 125.664 19.5227 126.091 19.864C126.176 20.0773 126.219 20.184 126.219 20.184C126.518 20.184 126.731 20.2693 126.859 20.44C126.987 20.6107 127.136 20.8027 127.307 21.016C127.776 21.528 128.139 22.0827 128.395 22.68C128.651 23.2347 128.779 23.832 128.779 24.472C128.779 24.6427 128.758 24.8133 128.715 24.984C128.715 25.1547 128.694 25.3467 128.651 25.56C129.632 25.0053 130.358 24.28 130.827 23.384C130.912 23.256 131.019 23.192 131.147 23.192C131.403 23.192 131.488 23.3413 131.403 23.64C131.19 24.1947 130.784 24.8133 130.187 25.496C129.632 26.136 128.992 26.6267 128.267 26.968C128.267 27.0107 128.246 27.0533 128.203 27.096C127.99 27.608 127.776 27.992 127.563 28.248C127.52 28.4187 127.435 28.5467 127.307 28.632C127.222 28.7173 127.158 28.824 127.115 28.952L127.051 29.016L126.795 29.144C126.752 29.1867 126.71 29.2507 126.667 29.336C126.667 29.4213 126.624 29.5067 126.539 29.592C126.624 29.6773 126.603 29.72 126.475 29.72C125.408 31 124.043 32.0667 122.379 32.92H122.315C122.016 33.0907 121.91 33.1333 121.995 33.048C122.08 33.0053 122.08 32.9413 121.995 32.856H121.931C121.59 33.0267 121.376 33.1547 121.291 33.24C121.163 33.24 121.014 33.2827 120.843 33.368C120.715 33.4533 120.651 33.496 120.651 33.496H120.331C120.288 33.496 120.182 33.5387 120.011 33.624C119.883 33.752 119.776 33.8373 119.691 33.88C119.478 33.88 119.328 33.944 119.243 34.072C119.158 34.072 119.051 34.072 118.923 34.072C118.795 34.072 118.667 34.0933 118.539 34.136C118.496 34.1787 118.283 34.2 117.899 34.2C117.558 34.2427 117.344 34.2853 117.259 34.328C117.216 34.3707 117.067 34.4347 116.811 34.52C116.555 34.6053 116.384 34.648 116.299 34.648C116.256 34.648 116.214 34.6267 116.171 34.584C116.171 34.584 116.15 34.584 116.107 34.584C116.064 34.584 116.022 34.6053 115.979 34.648C115.936 34.7333 115.872 34.776 115.787 34.776C115.702 34.776 115.616 34.7547 115.531 34.712C115.446 34.6693 115.36 34.648 115.275 34.648C115.232 34.648 115.147 34.6693 115.019 34.712C114.934 34.7973 114.848 34.84 114.763 34.84C114.678 34.84 114.592 34.8187 114.507 34.776C114.464 34.776 114.379 34.7973 114.251 34.84C114.166 34.8827 114.08 34.904 113.995 34.904ZM98.059 35.608C97.7603 35.608 97.611 35.288 97.611 34.648C97.611 34.2213 97.6963 33.688 97.867 33.048C98.0803 32.4507 98.3363 31.7467 98.635 30.936C98.9763 30.6373 99.147 30.2533 99.147 29.784C99.2323 29.8267 99.275 29.8267 99.275 29.784C99.3177 29.6987 99.339 29.656 99.339 29.656C99.4243 29.528 99.467 29.4 99.467 29.272C99.467 29.1013 99.4883 28.952 99.531 28.824C100.299 26.904 101.28 24.8133 102.475 22.552C102.56 22.3813 102.646 22.3387 102.731 22.424C102.859 22.4667 102.944 22.4453 102.987 22.36C103.03 22.3173 103.051 22.2107 103.051 22.04C103.051 21.912 103.03 21.784 102.987 21.656C102.987 21.528 103.051 21.3787 103.179 21.208L104.075 19.608C105.312 17.3893 106.55 15.256 107.787 13.208C109.067 11.16 110.262 9.58133 111.371 8.472L111.563 8.344L111.755 8.024C111.755 8.024 111.798 8.00267 111.883 7.96C111.968 7.91733 112.032 7.93866 112.075 8.024C112.075 8.06667 112.032 8.152 111.947 8.28C111.904 8.408 111.883 8.49333 111.883 8.536C112.011 8.74933 112.16 8.77067 112.331 8.6C112.374 8.51466 112.374 8.32266 112.331 8.024C112.288 7.72533 112.288 7.576 112.331 7.576C112.416 7.53333 112.459 7.53333 112.459 7.576C112.502 7.61867 112.544 7.64 112.587 7.64C112.672 7.64 112.715 7.576 112.715 7.448C112.715 7.32 112.736 7.23467 112.779 7.192C113.248 7.02133 113.675 6.936 114.059 6.936C114.272 6.936 114.571 7.04267 114.955 7.256C115.382 7.46933 115.595 7.768 115.595 8.152C115.595 8.36533 115.488 8.62133 115.275 8.92C115.232 8.96267 115.19 9.048 115.147 9.176C115.104 9.26133 115.04 9.34667 114.955 9.432C114.912 9.47467 114.87 9.496 114.827 9.496C114.827 9.45333 114.784 9.45333 114.699 9.496C114.656 9.53867 114.592 9.56 114.507 9.56C114.464 9.51733 114.4 9.496 114.315 9.496C114.23 9.496 114.208 9.56 114.251 9.688C114.336 9.816 114.358 9.90133 114.315 9.944C114.272 9.98667 114.23 9.98667 114.187 9.944C114.144 9.90133 114.08 9.92267 113.995 10.008C113.952 10.0507 113.974 10.0933 114.059 10.136C114.187 10.136 114.208 10.1787 114.123 10.264C113.867 10.52 113.547 10.7973 113.163 11.096C112.822 11.352 112.48 11.608 112.139 11.864C112.096 11.9067 112.054 11.9067 112.011 11.864C111.968 11.7787 111.926 11.7573 111.883 11.8L111.435 12.44C111.008 12.8667 110.582 13.3147 110.155 13.784C109.728 14.2533 109.28 14.7867 108.811 15.384C108.683 15.64 108.534 15.8747 108.363 16.088C108.192 16.3013 107.958 16.3867 107.659 16.344C107.659 16.3867 107.702 16.4507 107.787 16.536C107.872 16.5787 107.872 16.664 107.787 16.792C107.062 17.816 106.336 18.8827 105.611 19.992C104.886 21.1013 104.203 22.2533 103.563 23.448C103.264 23.96 102.902 24.6213 102.475 25.432L101.899 26.584C101.856 26.712 101.792 26.776 101.707 26.776C101.664 26.7333 101.6 26.712 101.515 26.712C101.6 26.8827 101.643 27.032 101.643 27.16C101.643 27.5013 101.451 27.864 101.067 28.248C100.512 29.528 100 30.744 99.531 31.896C99.0617 33.048 98.699 34.1147 98.443 35.096C98.3577 35.4373 98.2297 35.608 98.059 35.608ZM114.251 33.816H114.379C114.464 33.8587 114.571 33.816 114.699 33.688H114.955C115.126 33.6027 115.232 33.56 115.275 33.56C115.36 33.56 115.424 33.6027 115.467 33.688C115.51 33.816 115.616 33.816 115.787 33.688L116.043 33.624C116.128 33.5387 116.214 33.496 116.299 33.496C116.384 33.496 116.47 33.4747 116.555 33.432C116.64 33.3893 116.683 33.3253 116.683 33.24C116.726 33.1973 116.79 33.1973 116.875 33.24C116.96 33.24 117.003 33.24 117.003 33.24C117.046 33.2827 117.088 33.304 117.131 33.304H117.195C117.323 33.304 117.494 33.24 117.707 33.112C117.92 32.984 118.027 32.92 118.027 32.92C118.112 32.92 118.198 32.856 118.283 32.728C118.368 32.6427 118.432 32.6 118.475 32.6L118.987 32.472C119.243 32.344 119.435 32.28 119.563 32.28C119.606 32.1947 119.734 32.1093 119.947 32.024C120.16 31.9387 120.267 31.8747 120.267 31.832C120.352 31.7467 120.48 31.6827 120.651 31.64C120.822 31.5973 120.928 31.5547 120.971 31.512C121.142 31.512 121.547 31.256 122.187 30.744C122.87 30.232 123.446 29.5707 123.915 28.76C123.958 28.6747 123.83 28.696 123.531 28.824C123.232 28.952 122.912 29.1013 122.571 29.272C122.272 29.4 122.102 29.464 122.059 29.464C122.016 29.464 121.91 29.5493 121.739 29.72C121.568 29.848 121.462 29.912 121.419 29.912C121.334 29.9973 121.248 30.04 121.163 30.04C121.163 30.04 121.078 29.9973 120.907 29.912V30.04C120.822 30.04 120.758 30.0613 120.715 30.104C120.672 30.104 120.608 30.104 120.523 30.104C120.438 30.104 120.31 30.1467 120.139 30.232C119.968 30.3173 119.862 30.36 119.819 30.36C119.776 30.36 119.712 30.3813 119.627 30.424C119.584 30.424 119.52 30.4027 119.435 30.36C119.264 30.5307 118.944 30.6587 118.475 30.744C118.006 30.8293 117.664 30.872 117.451 30.872C117.408 30.872 117.387 30.872 117.387 30.872C117.43 30.8293 117.43 30.808 117.387 30.808C117.344 30.808 117.302 30.8293 117.259 30.872C117.216 30.872 117.152 30.872 117.067 30.872L116.939 31H116.427C116.299 31 116.15 31.0213 115.979 31.064C115.851 31.1067 115.744 31.1067 115.659 31.064H115.531C115.488 31.064 115.424 31.064 115.339 31.064C115.296 31.1067 115.232 31.128 115.147 31.128C115.104 31.128 115.062 31.1067 115.019 31.064C115.019 31.0213 114.976 30.9787 114.891 30.936C114.848 30.936 114.806 30.9573 114.763 31C114.72 31.0853 114.656 31.128 114.571 31.128C114.528 31.128 114.486 31.1067 114.443 31.064C114.443 31.064 114.422 31.064 114.379 31.064H114.123C114.123 31.1067 114.08 31.128 113.995 31.128C113.952 31.128 113.931 31.1067 113.931 31.064C113.931 31.064 113.91 31.064 113.867 31.064C113.782 31.064 113.675 31.0853 113.547 31.128C113.462 31.1707 113.376 31.192 113.291 31.192H113.163C113.163 31.1067 113.12 31.0427 113.035 31V31.064H112.459C112.203 31.0213 111.947 30.936 111.691 30.808C111.435 30.68 111.2 30.5947 110.987 30.552C110.944 30.552 110.902 30.5733 110.859 30.616C110.859 30.6587 110.838 30.68 110.795 30.68C110.752 30.68 110.71 30.6587 110.667 30.616C110.667 30.5733 110.646 30.552 110.603 30.552C110.56 30.552 110.518 30.5733 110.475 30.616C110.475 30.616 110.432 30.5733 110.347 30.488C110.262 30.488 110.091 30.4453 109.835 30.36C109.835 30.232 109.771 30.168 109.643 30.168C109.643 30.0827 109.387 29.976 108.875 29.848C108.363 29.72 108.064 29.6347 107.979 29.592C107.936 29.5493 107.851 29.4853 107.723 29.4C107.638 29.3147 107.574 29.3147 107.531 29.4C107.403 29.3573 107.232 29.2507 107.019 29.08C106.806 28.8667 106.635 28.76 106.507 28.76L106.251 28.376H106.187L105.995 28.696C105.995 28.7387 106.016 28.8453 106.059 29.016C106.144 29.1867 106.166 29.3147 106.123 29.4C106.208 29.4427 106.251 29.528 106.251 29.656C106.251 29.784 106.294 29.848 106.379 29.848C106.379 30.104 106.464 30.36 106.635 30.616C106.635 30.6587 106.742 30.744 106.955 30.872C107.211 31 107.318 31.0853 107.275 31.128C107.446 31.2987 107.531 31.4267 107.531 31.512C107.702 31.6827 107.787 31.8107 107.787 31.896C107.83 31.9387 107.851 31.96 107.851 31.96C107.894 31.96 107.915 31.96 107.915 31.96C107.958 32.0453 108.064 32.1947 108.235 32.408C108.448 32.6213 108.598 32.728 108.683 32.728H108.811C108.854 32.7707 108.939 32.856 109.067 32.984C109.238 33.112 109.344 33.176 109.387 33.176H109.451C109.792 33.176 110.134 33.2187 110.475 33.304C110.859 33.432 111.222 33.5173 111.563 33.56C111.563 33.56 111.606 33.5813 111.691 33.624C111.819 33.6667 111.947 33.7093 112.075 33.752C112.416 33.7947 112.822 33.7947 113.291 33.752C113.76 33.752 114.08 33.7733 114.251 33.816ZM144.903 31.192C144.647 31.192 144.519 31.0427 144.519 30.744C144.519 30.5307 144.583 30.2747 144.711 29.976C145.052 29.2507 145.436 28.2267 145.863 26.904C146.332 25.5813 146.908 24.4507 147.591 23.512C148.06 22.5733 148.487 21.656 148.871 20.76C149.297 19.8213 149.703 18.8827 150.087 17.944C150.087 17.944 150.044 17.9227 149.958 17.88C149.873 17.7947 149.831 17.7093 149.831 17.624C149.617 17.4533 149.361 17.2187 149.062 16.92C148.764 16.5787 148.743 16.2373 148.999 15.896C149.084 15.8107 149.127 15.768 149.127 15.768C149.169 15.768 149.191 15.768 149.191 15.768C149.191 15.7253 149.169 15.704 149.127 15.704C149.127 15.704 149.127 15.6827 149.127 15.64L149.062 15.576C149.02 15.576 148.977 15.576 148.935 15.576C148.935 15.5333 148.913 15.512 148.871 15.512C148.7 15.512 148.508 15.5547 148.295 15.64C148.081 15.6827 147.868 15.704 147.655 15.704C147.399 15.704 147.057 15.8107 146.631 16.024C146.204 16.1947 145.82 16.344 145.479 16.472C145.308 16.5147 145.201 16.536 145.159 16.536C145.159 16.4933 145.073 16.5147 144.903 16.6C144.86 16.6427 144.86 16.5787 144.903 16.408C144.988 16.1947 145.031 16.0453 145.031 15.96C145.031 15.9173 145.009 15.896 144.967 15.896C144.881 15.896 144.711 16.024 144.455 16.28C144.199 16.4933 144.028 16.6213 143.943 16.664C143.9 16.7067 143.879 16.7707 143.879 16.856C143.921 16.9413 143.943 17.0267 143.943 17.112C143.943 17.24 143.836 17.3893 143.623 17.56C143.409 17.688 143.26 17.7947 143.175 17.88C143.004 18.008 142.791 18.0933 142.535 18.136C142.321 18.136 142.108 18.2213 141.895 18.392C141.639 18.5627 141.51 18.6907 141.51 18.776C141.553 18.8613 141.425 19.0107 141.127 19.224C140.743 19.5227 140.209 19.9707 139.527 20.568C138.887 21.1653 138.396 21.6987 138.055 22.168C137.244 23.1493 136.497 24.28 135.815 25.56C135.175 26.84 134.855 27.8427 134.855 28.568C134.855 29.1227 135.089 29.4 135.559 29.4C135.644 29.4 135.729 29.4 135.815 29.4C135.9 29.3573 136.007 29.3147 136.135 29.272L137.799 28.312L138.183 28.248V28.184L138.439 28.376C138.481 28.3333 138.46 28.2693 138.375 28.184C138.332 28.056 138.332 27.992 138.375 27.992C138.417 27.992 138.439 28.0133 138.439 28.056C138.481 28.056 138.524 28.056 138.567 28.056L138.695 27.864C138.695 27.864 138.759 27.8853 138.887 27.928C139.057 27.928 139.185 27.8853 139.271 27.8C139.399 27.7573 139.42 27.6933 139.335 27.608C139.292 27.5227 139.228 27.4587 139.143 27.416L139.591 27.032C139.633 26.9467 139.804 26.8613 140.103 26.776C140.828 26.3067 141.425 25.752 141.895 25.112C142.407 24.4293 142.983 23.8107 143.623 23.256H143.687L144.455 22.488L144.391 22.296L145.223 21.336H145.351C145.393 21.2507 145.479 21.144 145.607 21.016C145.777 20.888 145.884 20.7813 145.927 20.696C146.012 20.6533 146.204 20.44 146.503 20.056C146.844 19.6293 147.164 19.288 147.463 19.032C147.804 18.776 147.996 18.648 148.039 18.648C148.081 18.648 148.103 18.6693 148.103 18.712C148.103 18.84 148.039 19.032 147.911 19.288C147.825 19.544 147.74 19.7147 147.655 19.8C147.356 20.2693 146.972 20.8027 146.503 21.4C146.033 21.9547 145.756 22.296 145.671 22.424C145.159 22.9787 144.54 23.7253 143.815 24.664C143.089 25.56 142.3 26.456 141.447 27.352C140.593 28.248 139.74 29.016 138.887 29.656C138.076 30.2533 137.308 30.552 136.583 30.552C135.9 30.552 135.175 30.3387 134.407 29.912C133.639 29.4853 133.255 28.6747 133.255 27.48C133.255 27.096 133.297 26.6693 133.383 26.2C133.511 25.688 133.703 25.1547 133.959 24.6C133.959 24.6 134.001 24.5573 134.087 24.472C134.172 24.344 134.236 24.3013 134.279 24.344C134.364 24.216 134.385 24.088 134.343 23.96C134.343 23.7893 134.343 23.6827 134.343 23.64L134.471 23.512C134.556 23.0427 134.876 22.616 135.431 22.232C135.985 21.848 136.284 21.5493 136.327 21.336C136.369 21.2933 136.391 21.2293 136.391 21.144L136.647 20.312V20.056H136.903L137.095 19.8L137.159 19.672C137.073 19.6293 137.095 19.5653 137.223 19.48C137.393 19.352 137.479 19.288 137.479 19.288C137.521 19.2027 137.564 19.1387 137.607 19.096C137.692 19.0533 137.756 19.0107 137.799 18.968H138.247C138.332 18.84 138.289 18.776 138.119 18.776C137.948 18.776 137.863 18.776 137.863 18.776C137.863 18.7333 137.863 18.712 137.863 18.712C137.905 18.6693 137.927 18.6267 137.927 18.584L138.631 18.008C138.844 17.8373 139.057 17.688 139.271 17.56C139.484 17.432 139.676 17.2827 139.847 17.112C139.975 17.112 139.996 17.176 139.911 17.304C139.953 17.3893 139.996 17.3893 140.039 17.304C140.124 17.2187 140.167 17.176 140.167 17.176L140.487 17.112V17.048C140.487 16.9627 140.508 16.8347 140.551 16.664C140.593 16.4933 140.615 16.3867 140.615 16.344C141.511 15.6613 142.449 15.064 143.431 14.552C144.412 13.9973 145.372 13.72 146.311 13.72C147.42 13.72 148.423 14.1467 149.319 15L149.639 15.192C149.681 15.192 149.703 15.1707 149.703 15.128C149.788 14.5307 150.279 14.0827 151.175 13.784C152.113 13.4853 152.945 13.336 153.671 13.336C154.439 13.336 154.823 13.4427 154.823 13.656C154.823 13.7413 154.695 13.8907 154.439 14.104C154.311 14.1893 154.097 14.3813 153.799 14.68C153.5 14.9787 153.201 15.3413 152.903 15.768C152.86 15.896 152.796 16.024 152.711 16.152C152.625 16.28 152.54 16.408 152.455 16.536C152.412 16.6213 152.348 16.728 152.263 16.856C152.22 16.9413 152.156 17.0267 152.071 17.112C151.345 18.3493 150.769 19.3947 150.343 20.248C149.916 21.1013 149.404 22.1893 148.807 23.512C148.721 23.768 148.679 23.9173 148.679 23.96C148.679 24.3013 148.871 24.472 149.255 24.472C149.511 24.472 149.767 24.408 150.023 24.28L150.663 24.024C151.687 23.0853 152.753 22.296 153.863 21.656C153.905 21.656 153.927 21.656 153.927 21.656C153.969 21.6133 154.012 21.592 154.055 21.592C154.183 21.592 154.268 21.6773 154.311 21.848C154.353 21.976 154.311 22.0827 154.183 22.168C152.945 22.8507 151.793 23.7253 150.727 24.792C150.684 24.8773 150.641 24.9627 150.599 25.048C150.556 25.1333 150.492 25.2187 150.407 25.304C150.279 25.3893 150.151 25.5387 150.023 25.752C149.895 25.9653 149.831 26.0933 149.831 26.136C149.788 26.264 149.724 26.3067 149.639 26.264C149.596 26.2213 149.468 26.2853 149.255 26.456C149.212 26.4987 149.169 26.584 149.127 26.712C149.127 26.84 149.105 26.9467 149.062 27.032C148.977 27.16 148.892 27.2667 148.807 27.352C148.721 27.3947 148.679 27.4373 148.679 27.48C148.636 27.6507 148.551 27.7573 148.423 27.8C148.337 27.8 148.252 27.8427 148.167 27.928C148.124 27.928 148.103 27.9493 148.103 27.992C148.103 28.376 148.06 28.5467 147.975 28.504C147.889 28.4613 147.804 28.504 147.719 28.632C147.633 28.8027 147.527 28.888 147.399 28.888C147.143 28.9733 147.036 29.0373 147.079 29.08C147.164 29.1227 147.228 29.1653 147.271 29.208C147.356 29.208 147.292 29.272 147.079 29.4C146.993 29.4427 146.908 29.5707 146.823 29.784C146.737 29.9547 146.652 30.0827 146.567 30.168C146.439 30.2533 146.311 30.3173 146.183 30.36C146.055 30.4027 145.948 30.488 145.863 30.616C145.479 31 145.159 31.192 144.903 31.192ZM147.043 49.176C146.403 49.176 145.849 49.112 145.379 48.984C145.081 48.8987 144.782 48.792 144.483 48.664C144.185 48.536 143.865 48.3867 143.523 48.216L143.395 48.152C143.225 48.0667 143.033 47.9387 142.819 47.768C142.606 47.64 142.393 47.5333 142.179 47.448C142.009 47.4053 141.774 47.2773 141.475 47.064C141.262 46.8933 141.134 46.7227 141.091 46.552C141.006 46.3813 141.027 46.2747 141.155 46.232C141.198 46.232 141.262 46.2533 141.347 46.296C141.433 46.3813 141.518 46.4453 141.603 46.488C141.689 46.5307 141.795 46.5947 141.923 46.68C142.009 46.7653 142.094 46.8293 142.179 46.872C142.393 46.9573 142.585 47.0213 142.755 47.064C142.883 47.1493 143.033 47.2347 143.203 47.32C143.587 47.4907 143.865 47.5973 144.035 47.64C144.206 47.6827 144.462 47.7253 144.803 47.768L145.635 47.832C147.897 48.0027 149.795 47.576 151.331 46.552C152.825 45.528 154.084 44.44 155.108 43.288C155.236 42.9467 155.364 42.6267 155.492 42.328C155.662 42.072 155.833 41.8587 156.004 41.688C156.046 41.6453 156.089 41.6667 156.132 41.752C156.217 41.88 156.281 41.9227 156.324 41.88C156.409 41.752 156.452 41.5387 156.452 41.24C156.494 40.984 156.58 40.792 156.708 40.664C156.75 40.6213 156.793 40.664 156.836 40.792C156.921 40.92 156.985 40.9627 157.028 40.92C157.113 40.8347 157.156 40.664 157.156 40.408C157.198 40.152 157.241 40.0027 157.284 39.96C157.71 39.3627 158.094 38.808 158.436 38.296C158.777 37.784 159.161 37.1653 159.588 36.44C159.972 35.8427 160.42 35.0747 160.932 34.136C161.486 33.24 161.977 32.408 162.404 31.64C162.83 30.9573 163.15 30.232 163.364 29.464L163.556 28.76C163.769 27.9493 164.196 26.84 164.836 25.432C165.518 23.9813 166.308 22.424 167.204 20.76C168.142 19.0533 169.081 17.432 170.02 15.896C170.233 15.64 170.404 15.4267 170.532 15.256C170.66 15.0853 170.852 14.872 171.108 14.616C171.193 14.5733 171.364 14.3813 171.62 14.04C171.876 13.6987 172.132 13.3573 172.388 13.016C172.686 12.632 172.857 12.4187 172.9 12.376C174.137 11.352 175.502 10.5413 176.996 9.944C178.532 9.304 179.726 8.984 180.58 8.984C180.921 8.984 181.156 8.984 181.284 8.984C181.454 8.94133 181.668 8.94133 181.924 8.984L182.372 9.048C182.542 9.09067 182.692 9.15467 182.82 9.24C182.99 9.28267 183.161 9.32533 183.332 9.368C183.417 9.41067 183.524 9.47467 183.652 9.56C183.78 9.64533 183.886 9.70933 183.972 9.752C184.142 9.88 184.228 10.0293 184.228 10.2C184.228 10.328 184.185 10.4133 184.1 10.456C184.057 10.4987 183.993 10.4987 183.908 10.456C183.865 10.3707 183.801 10.328 183.716 10.328C183.63 10.328 183.545 10.3067 183.46 10.264C183.374 10.2213 183.289 10.1787 183.204 10.136C183.033 10.136 182.884 10.1147 182.756 10.072C182.628 10.0293 182.5 9.98667 182.372 9.944C182.201 9.90133 182.052 9.88 181.924 9.88C181.796 9.88 181.689 9.88 181.604 9.88C181.433 9.88 181.262 9.90133 181.092 9.944C181.049 9.944 180.921 9.96533 180.708 10.008C180.537 10.008 180.409 10.0293 180.324 10.072C178.361 10.5413 176.761 11.4373 175.524 12.76C174.286 14.0827 173.177 15.4267 172.196 16.792C172.025 17.0053 171.79 17.2827 171.492 17.624C171.236 17.9227 171.065 18.1147 170.98 18.2C170.937 18.2853 170.745 18.584 170.404 19.096C170.062 19.5653 169.721 20.056 169.38 20.568C169.081 21.0373 168.91 21.2933 168.868 21.336C168.825 21.3787 168.74 21.4 168.612 21.4C168.526 21.4 168.462 21.4213 168.42 21.464L166.884 24.536L166.244 25.752L165.412 27.416C164.985 28.2267 164.601 29.0587 164.26 29.912C163.918 30.7227 163.641 31.512 163.428 32.28C163.3 32.5787 163.236 32.92 163.236 33.304C163.236 33.688 163.129 33.9227 162.916 34.008C162.788 34.0507 162.681 33.9867 162.595 33.816C162.51 33.6453 162.468 33.7947 162.468 34.264C162.553 34.3067 162.553 34.392 162.468 34.52C162.425 34.648 162.404 34.7547 162.404 34.84C162.446 34.9253 162.468 35.0533 162.468 35.224C162.468 35.4373 162.382 35.6293 162.212 35.8C162.084 35.9707 161.977 36.1627 161.892 36.376C161.806 36.5467 161.7 36.5893 161.572 36.504C161.444 36.4613 161.337 36.44 161.252 36.44L161.188 36.568C161.188 36.696 161.252 36.9947 161.38 37.464C161.38 37.72 161.252 37.848 160.996 37.848H160.804C160.761 38.744 160.59 39.2773 160.292 39.448L159.844 39.768L159.716 40.024C159.46 40.536 159.268 40.7707 159.14 40.728L158.948 41.24C158.905 41.368 158.798 41.4747 158.628 41.56C158.5 41.6453 158.393 41.752 158.308 41.88C158.308 41.9227 158.286 41.944 158.244 41.944C158.244 41.944 158.244 41.9653 158.244 42.008C158.244 42.52 158.009 43.032 157.54 43.544C157.113 44.056 156.665 44.504 156.196 44.888C156.11 45.0587 156.004 45.2293 155.876 45.4C155.748 45.5707 155.598 45.72 155.428 45.848C155.214 46.0613 154.958 46.1893 154.66 46.232C154.404 46.2747 154.148 46.4027 153.892 46.616C153.806 46.6587 153.764 46.7653 153.764 46.936C153.806 47.1493 153.785 47.2773 153.7 47.32C152.761 47.9173 151.673 48.3653 150.435 48.664C149.198 49.0053 148.067 49.176 147.043 49.176ZM157.732 30.936C157.177 30.936 156.708 30.616 156.324 29.976C155.94 29.2933 155.833 28.7813 156.004 28.44C156.046 28.3547 156.089 28.248 156.132 28.12C156.217 27.9493 156.281 27.8427 156.324 27.8C156.409 27.7147 156.452 27.6933 156.452 27.736C156.494 27.736 156.537 27.7147 156.58 27.672C156.622 27.5867 156.601 27.5227 156.516 27.48C156.473 27.3947 156.473 27.3307 156.516 27.288L157.284 24.408C157.284 24.3653 157.305 24.3227 157.348 24.28C157.39 24.2373 157.411 24.1947 157.411 24.152L157.54 23C157.54 22.9573 157.582 22.9573 157.668 23C157.753 23 157.817 22.9787 157.86 22.936C157.945 22.7227 157.924 22.616 157.796 22.616C157.668 22.616 157.604 22.5947 157.604 22.552C157.646 22.2107 157.71 21.976 157.796 21.848C157.881 21.72 157.945 21.5067 157.988 21.208L158.18 20.12C158.18 20.1627 158.201 20.3333 158.244 20.632C158.286 20.888 158.393 21.016 158.564 21.016C158.777 21.016 158.841 20.9733 158.756 20.888C158.67 20.8027 158.606 20.696 158.564 20.568C158.521 20.3547 158.564 20.184 158.692 20.056C158.734 20.0133 158.82 20.0987 158.948 20.312C159.076 20.4827 159.14 20.568 159.14 20.568C159.182 20.4827 159.204 20.376 159.204 20.248C159.204 20.12 159.161 20.0347 159.076 19.992C158.905 19.864 158.713 19.7787 158.5 19.736C158.329 19.6507 158.244 19.5653 158.244 19.48C158.244 19.352 158.265 19.224 158.308 19.096C158.308 19.0533 158.329 19.0107 158.372 18.968C158.414 18.9253 158.436 18.8827 158.436 18.84C158.436 18.7547 158.393 18.712 158.308 18.712C158.265 18.712 158.244 18.6907 158.244 18.648V18.008C158.244 17.88 158.244 17.752 158.244 17.624C158.244 17.4533 158.201 17.2827 158.116 17.112C157.988 16.8133 157.796 16.5573 157.54 16.344C157.284 16.1307 156.964 16.024 156.58 16.024H156.516L156.388 16.152H156.26C155.961 16.3653 155.62 16.5787 155.236 16.792C154.894 16.9627 154.596 17.0907 154.34 17.176L154.212 17.24C154.169 17.2827 154.105 17.304 154.02 17.304C153.849 17.304 153.721 17.2187 153.636 17.048C153.593 16.8773 153.657 16.7707 153.828 16.728C154.169 16.5147 154.532 16.344 154.916 16.216C155.3 16.088 155.641 15.896 155.94 15.64C156.025 15.4267 156.238 15.256 156.58 15.128C156.665 15.0427 156.729 15.0213 156.772 15.064C156.814 15.1067 156.857 15.128 156.9 15.128C157.113 15.128 157.241 15.064 157.284 14.936C157.369 14.7653 157.433 14.7227 157.476 14.808H158.116C159.054 14.808 159.78 15.192 160.292 15.96C160.804 16.6853 161.038 17.6667 160.996 18.904C160.996 18.9467 160.932 19.0107 160.804 19.096C160.718 19.1387 160.676 19.2027 160.676 19.288C160.676 19.3307 160.718 19.352 160.804 19.352C160.932 19.3093 160.996 19.3307 160.996 19.416V19.672C160.996 20.056 160.974 20.2693 160.932 20.312C160.846 21.2507 160.633 22.232 160.292 23.256C159.993 24.2373 159.673 25.1973 159.332 26.136C159.204 26.136 159.118 26.2 159.076 26.328C159.033 26.456 158.969 26.52 158.884 26.52C158.756 26.52 158.628 26.4773 158.5 26.392C158.414 26.264 158.372 26.264 158.372 26.392C158.372 26.5627 158.457 26.6907 158.628 26.776C158.798 26.8187 158.905 26.8613 158.948 26.904C158.99 26.9467 159.076 26.968 159.204 26.968C159.332 26.968 159.46 26.9253 159.588 26.84C159.716 26.7547 159.844 26.6693 159.972 26.584C160.185 26.4133 160.462 26.1787 160.804 25.88C161.188 25.5387 161.529 25.24 161.828 24.984C162.126 24.6853 162.276 24.536 162.276 24.536C162.19 24.4507 162.254 24.3653 162.468 24.28L162.788 23.896C162.83 23.6827 162.958 23.448 163.172 23.192C163.385 22.936 163.577 22.7867 163.748 22.744L163.876 22.488C163.918 22.488 163.961 22.5093 164.004 22.552C164.046 22.552 164.089 22.5307 164.132 22.488C164.174 22.488 164.174 22.4453 164.132 22.36C164.132 22.2747 164.153 22.232 164.196 22.232L164.516 21.784C164.601 21.528 164.686 21.3787 164.772 21.336C164.729 21.208 164.772 21.1227 164.9 21.08C164.985 21.08 165.07 21.1013 165.156 21.144C165.284 21.144 165.348 21.0587 165.348 20.888C165.348 20.8027 165.369 20.696 165.412 20.568C165.454 20.3973 165.561 20.3333 165.732 20.376L165.796 20.248C165.796 20.2053 165.881 20.1413 166.052 20.056C166.222 19.928 166.329 19.8427 166.372 19.8L166.692 19.352C166.82 19.1387 166.948 19.032 167.076 19.032C167.204 18.9893 167.289 18.968 167.332 18.968C167.374 18.968 167.396 19.0107 167.396 19.096C167.396 19.3947 167.246 19.6933 166.948 19.992L166.436 20.568C166.393 20.6107 166.35 20.632 166.308 20.632C166.265 20.632 166.222 20.6747 166.18 20.76C166.137 20.8027 166.094 20.8667 166.052 20.952C166.009 21.0373 165.966 21.1227 165.924 21.208L165.412 21.784L161.956 25.88C161.572 26.3067 161.316 26.584 161.188 26.712C161.102 26.84 160.974 27.032 160.804 27.288C160.761 27.3307 160.697 27.3307 160.612 27.288C160.526 27.2453 160.441 27.2667 160.356 27.352L160.292 27.736L159.972 28.056C159.929 28.0987 159.95 28.12 160.036 28.12C160.164 28.12 160.206 28.1413 160.164 28.184L159.268 29.72C158.798 30.5307 158.286 30.936 157.732 30.936ZM175.47 31.576C174.531 31.576 173.699 31.32 172.974 30.808C172.291 30.2533 171.95 29.3147 171.95 27.992C171.95 27.5227 172.035 26.8613 172.206 26.008C172.376 25.1547 172.654 24.2587 173.038 23.32C173.251 22.808 173.486 22.3173 173.742 21.848C174.04 21.3787 174.318 20.9307 174.574 20.504C174.616 20.4613 174.744 20.504 174.958 20.632C175.214 20.76 175.363 20.8027 175.406 20.76C175.448 20.6747 175.384 20.5893 175.214 20.504C175.086 20.376 175.043 20.2907 175.086 20.248C175.171 20.1627 175.235 20.12 175.278 20.12C175.363 20.0773 175.427 20.0133 175.47 19.928C175.512 19.8427 175.534 19.7573 175.534 19.672C175.534 19.544 175.47 19.4373 175.342 19.352C175.256 19.2667 175.299 19.1387 175.47 18.968C175.683 18.6693 175.918 18.392 176.174 18.136C176.472 17.8373 176.728 17.5813 176.942 17.368C177.027 17.2827 177.134 17.1547 177.262 16.984C177.39 16.7707 177.475 16.6427 177.518 16.6L177.646 16.472C177.688 16.4293 177.731 16.3867 177.774 16.344C177.774 16.3013 177.774 16.28 177.774 16.28C177.816 16.28 177.838 16.2587 177.838 16.216C177.838 16.088 177.71 15.96 177.454 15.832C177.198 15.704 177.07 15.6187 177.07 15.576C177.07 15.5333 177.048 15.4907 177.006 15.448C176.963 15.4053 176.92 15.3413 176.878 15.256C176.92 15.256 176.963 15.2133 177.006 15.128C177.091 15 177.155 14.936 177.198 14.936C177.24 14.936 177.326 14.9787 177.454 15.064C177.582 15.1067 177.667 15.128 177.71 15.128C177.752 15.128 177.774 15.1067 177.774 15.064C177.816 15.0213 177.859 15 177.902 15C177.987 15 178.179 15.064 178.478 15.192C178.776 15.2773 178.947 15.32 178.99 15.32C179.032 15.32 179.16 15.2133 179.374 15C179.587 14.7867 179.715 14.6587 179.758 14.616C179.843 14.5307 179.907 14.4453 179.95 14.36C179.992 14.232 180.099 14.0827 180.27 13.912H180.334C180.376 13.8693 180.398 13.8267 180.398 13.784C180.398 13.7413 180.398 13.72 180.398 13.72C180.483 13.6347 180.547 13.5707 180.59 13.528C180.675 13.4427 180.739 13.3787 180.782 13.336C180.824 13.2933 180.845 13.272 180.845 13.272C180.888 13.272 180.91 13.272 180.91 13.272C180.952 13.1867 180.995 13.1227 181.038 13.08C181.123 13.0373 181.187 12.9947 181.23 12.952L181.358 12.696C181.443 12.6107 181.742 12.4187 182.254 12.12C182.766 11.8213 183.15 11.672 183.406 11.672H183.726C183.726 11.672 183.726 11.6933 183.726 11.736C183.726 11.736 183.747 11.736 183.79 11.736C183.832 11.736 183.875 11.736 183.918 11.736C183.96 11.6933 184.003 11.672 184.046 11.672C184.046 11.672 184.11 11.736 184.238 11.864C184.28 11.9067 184.323 11.928 184.366 11.928C184.408 11.8853 184.451 11.864 184.494 11.864C184.536 11.9067 184.558 11.9493 184.558 11.992C184.558 12.0347 184.579 12.056 184.622 12.056C184.707 12.056 184.728 12.056 184.686 12.056C184.686 12.0133 184.707 11.992 184.75 11.992C184.792 11.992 184.814 12.0347 184.814 12.12C184.814 12.2053 184.835 12.2907 184.878 12.376C184.835 12.504 184.792 12.6533 184.75 12.824C184.75 12.952 184.728 13.0587 184.686 13.144C184.302 13.656 184.003 13.912 183.79 13.912C183.79 13.9547 183.726 14.04 183.598 14.168C183.47 14.168 183.32 14.2107 183.15 14.296C182.979 14.3813 182.808 14.4667 182.638 14.552V14.744C182.638 14.9147 182.574 15 182.446 15C182.36 14.9573 182.275 15.0213 182.19 15.192V15.256C182.275 15.384 182.424 15.448 182.638 15.448L183.086 15.512C183.171 15.512 183.214 15.4907 183.214 15.448C183.256 15.4053 183.299 15.384 183.342 15.384C183.384 15.384 183.406 15.4053 183.406 15.448C183.406 15.448 183.427 15.448 183.47 15.448C183.555 15.448 183.619 15.4267 183.662 15.384C183.704 15.3413 183.747 15.32 183.79 15.32L184.366 15.384C184.238 15.1707 184.174 15 184.174 14.872C184.174 14.6587 184.366 14.5307 184.75 14.488C185.347 14.488 185.859 14.7013 186.286 15.128C186.371 15.0853 186.478 15.0853 186.606 15.128C186.734 15.1707 186.862 15.1707 186.99 15.128L187.31 14.936L187.374 15C187.544 14.9147 187.651 14.872 187.694 14.872C187.779 14.872 187.8 14.8933 187.758 14.936C187.758 14.936 187.779 14.936 187.822 14.936C187.822 14.936 187.864 14.8933 187.95 14.808C187.992 14.808 188.035 14.8293 188.078 14.872C188.163 14.872 188.227 14.8507 188.27 14.808L188.462 14.616H189.23L189.294 14.552C189.379 14.5093 189.486 14.4667 189.614 14.424C189.784 14.3387 189.934 14.296 190.062 14.296C190.062 14.2533 190.104 14.232 190.19 14.232C190.275 14.1893 190.339 14.168 190.382 14.168H190.51C190.723 14.168 190.83 14.232 190.83 14.36C190.83 14.488 190.766 14.5947 190.638 14.68C190.595 14.7227 190.531 14.744 190.446 14.744C190.36 14.7013 190.275 14.7013 190.19 14.744C190.019 14.9147 189.891 15 189.806 15C189.763 15 189.742 15 189.742 15C189.742 14.9573 189.72 14.936 189.678 14.936C189.635 14.936 189.55 15 189.422 15.128L188.974 15.192H188.91C188.824 15.192 188.782 15.2347 188.782 15.32C188.611 15.32 188.44 15.3413 188.27 15.384C188.099 15.384 187.928 15.4053 187.758 15.448L187.694 15.512C187.651 15.512 187.608 15.5333 187.566 15.576C187.523 15.576 187.459 15.576 187.374 15.576C187.288 15.6187 187.054 15.64 186.67 15.64C186.926 15.9813 187.096 16.3013 187.182 16.6C187.267 16.8133 187.331 17.1547 187.374 17.624C187.459 18.0507 187.48 18.3707 187.438 18.584C187.438 18.712 187.395 18.7547 187.31 18.712C187.224 18.6267 187.182 18.6267 187.182 18.712C187.182 18.84 187.224 18.9253 187.31 18.968C187.438 18.968 187.502 19.0747 187.502 19.288C187.502 19.416 187.48 19.5867 187.438 19.8C187.395 19.9707 187.352 20.1627 187.31 20.376C187.267 20.632 187.203 20.9093 187.118 21.208C187.075 21.464 186.968 21.72 186.798 21.976L186.606 22.296V22.68C186.606 23.0213 186.499 23.256 186.286 23.384C186.115 23.512 185.987 23.6613 185.902 23.832C185.816 24.088 185.752 24.2587 185.71 24.344C185.71 24.4293 185.624 24.6 185.454 24.856C184.899 25.7093 184.238 26.52 183.47 27.288C182.702 28.056 181.955 28.76 181.23 29.4C180.59 29.9547 179.715 30.4667 178.606 30.936C177.539 31.3627 176.494 31.576 175.47 31.576ZM176.11 30.424C176.238 30.424 176.494 30.4027 176.878 30.36C177.262 30.2747 177.667 30.0827 178.094 29.784C178.179 29.7413 178.264 29.7627 178.35 29.848C178.435 29.9333 178.52 29.9547 178.606 29.912C178.819 29.8267 178.904 29.7627 178.862 29.72C178.819 29.6773 178.883 29.6347 179.054 29.592H179.118C179.374 29.592 179.48 29.5707 179.438 29.528C179.438 29.4427 179.459 29.336 179.502 29.208C179.502 29.08 179.566 28.9733 179.694 28.888C179.822 28.8027 179.928 28.7387 180.014 28.696C180.483 28.312 181.059 27.672 181.742 26.776C182.424 25.8373 183.107 24.8987 183.79 23.96C183.832 23.8747 183.896 23.8533 183.982 23.896C184.067 23.9387 184.131 23.9387 184.174 23.896C184.216 23.8533 184.238 23.7253 184.238 23.512C184.238 23.384 184.302 23.192 184.43 22.936C184.558 22.6373 184.686 22.4027 184.814 22.232C184.856 22.104 184.942 21.8693 185.07 21.528C185.198 21.144 185.304 20.8027 185.39 20.504C185.518 20.1627 185.539 19.992 185.454 19.992C185.368 19.9493 185.326 19.9067 185.326 19.864C185.326 19.7787 185.454 19.6933 185.71 19.608C185.966 19.5227 185.944 19.4587 185.646 19.416C185.56 19.3733 185.582 19.288 185.71 19.16C185.838 19.032 185.774 18.9467 185.518 18.904C185.304 18.8613 185.219 18.7973 185.262 18.712C185.347 18.6267 185.411 18.5627 185.454 18.52C185.582 18.392 185.646 18.264 185.646 18.136C185.646 17.752 185.539 17.368 185.326 16.984C185.155 16.6 184.963 16.2587 184.75 15.96C184.494 16.1307 184.366 16.216 184.366 16.216C184.323 16.216 184.302 16.216 184.302 16.216C184.302 16.1733 184.259 16.152 184.174 16.152C184.131 16.152 184.11 16.152 184.11 16.152C184.11 16.1093 184.088 16.088 184.046 16.088C184.003 16.088 183.96 16.1093 183.918 16.152C183.875 16.1947 183.854 16.216 183.854 16.216C183.811 16.2587 183.726 16.28 183.598 16.28C183.512 16.28 183.448 16.28 183.406 16.28C183.363 16.28 183.32 16.2587 183.278 16.216C183.278 16.1733 183.256 16.152 183.214 16.152C183.171 16.152 183.107 16.1947 183.022 16.28C182.979 16.3653 182.915 16.408 182.83 16.408C182.787 16.408 182.766 16.3867 182.766 16.344C182.766 16.3013 182.723 16.28 182.638 16.28C182.595 16.28 182.552 16.3013 182.51 16.344C182.51 16.3867 182.488 16.408 182.446 16.408C182.403 16.408 182.318 16.344 182.19 16.216H182.126C182.126 16.472 182.062 16.6 181.934 16.6C181.891 16.6 181.827 16.5573 181.742 16.472C181.272 16.7707 180.483 17.4747 179.374 18.584C178.264 19.6507 177.283 20.888 176.43 22.296C176.259 22.6373 176.046 23.0427 175.79 23.512C175.576 23.9813 175.384 24.5147 175.214 25.112C175.171 25.368 175.043 25.56 174.83 25.688C174.659 25.816 174.531 25.9653 174.446 26.136C174.403 26.3067 174.424 26.4133 174.51 26.456C174.595 26.4987 174.659 26.5627 174.702 26.648C174.702 26.8187 174.659 27.0533 174.574 27.352C174.531 27.6507 174.51 27.928 174.51 28.184C174.51 28.9947 174.659 29.5707 174.958 29.912C175.299 30.2533 175.683 30.424 176.11 30.424Z" fill="white"/>
</svg>
