<svg width="31" height="33" viewBox="0 0 31 33" fill="none" xmlns="http://www.w3.org/2000/svg">
<path d="M10.3687 25.3375C10.3687 25.4625 10.225 25.5625 10.0437 25.5625C9.8375 25.5813 9.69375 25.4813 9.69375 25.3375C9.69375 25.2125 9.8375 25.1125 10.0188 25.1125C10.2063 25.0938 10.3687 25.1938 10.3687 25.3375ZM8.425 25.0563C8.38125 25.1813 8.50625 25.325 8.69375 25.3625C8.85625 25.425 9.04375 25.3625 9.08125 25.2375C9.11875 25.1125 9 24.9688 8.8125 24.9125C8.65 24.8688 8.46875 24.9313 8.425 25.0563ZM11.1875 24.95C11.0063 24.9938 10.8812 25.1125 10.9 25.2563C10.9187 25.3813 11.0813 25.4625 11.2688 25.4188C11.45 25.375 11.575 25.2563 11.5562 25.1313C11.5375 25.0125 11.3687 24.9313 11.1875 24.95ZM15.3 1C6.63125 1 0 7.58125 0 16.25C0 23.1813 4.3625 29.1125 10.5938 31.2C11.3938 31.3438 11.675 30.85 11.675 30.4438C11.675 30.0563 11.6562 27.9188 11.6562 26.6063C11.6562 26.6063 7.28125 27.5438 6.3625 24.7438C6.3625 24.7438 5.65 22.925 4.625 22.4563C4.625 22.4563 3.19375 21.475 4.725 21.4938C4.725 21.4938 6.28125 21.6188 7.1375 23.1063C8.50625 25.5188 10.8 24.825 11.6938 24.4125C11.8375 23.4125 12.2438 22.7188 12.6938 22.3063C9.2 21.9188 5.675 21.4125 5.675 15.4C5.675 13.6813 6.15 12.8188 7.15 11.7188C6.9875 11.3125 6.45625 9.6375 7.3125 7.475C8.61875 7.06875 11.625 9.1625 11.625 9.1625C12.875 8.8125 14.2188 8.63125 15.55 8.63125C16.8813 8.63125 18.225 8.8125 19.475 9.1625C19.475 9.1625 22.4813 7.0625 23.7875 7.475C24.6438 9.64375 24.1125 11.3125 23.95 11.7188C24.95 12.825 25.5625 13.6875 25.5625 15.4C25.5625 21.4313 21.8813 21.9125 18.3875 22.3063C18.9625 22.8 19.45 23.7375 19.45 25.2063C19.45 27.3125 19.4312 29.9188 19.4312 30.4313C19.4312 30.8375 19.7188 31.3313 20.5125 31.1875C26.7625 29.1125 31 23.1813 31 16.25C31 7.58125 23.9688 1 15.3 1ZM6.075 22.5563C5.99375 22.6188 6.0125 22.7625 6.11875 22.8813C6.21875 22.9813 6.3625 23.025 6.44375 22.9438C6.525 22.8813 6.50625 22.7375 6.4 22.6188C6.3 22.5188 6.15625 22.475 6.075 22.5563ZM5.4 22.05C5.35625 22.1313 5.41875 22.2313 5.54375 22.2938C5.64375 22.3563 5.76875 22.3375 5.8125 22.25C5.85625 22.1688 5.79375 22.0688 5.66875 22.0063C5.54375 21.9688 5.44375 21.9875 5.4 22.05ZM7.425 24.275C7.325 24.3563 7.3625 24.5438 7.50625 24.6625C7.65 24.8063 7.83125 24.825 7.9125 24.725C7.99375 24.6438 7.95625 24.4563 7.83125 24.3375C7.69375 24.1938 7.50625 24.175 7.425 24.275ZM6.7125 23.3563C6.6125 23.4188 6.6125 23.5813 6.7125 23.725C6.8125 23.8688 6.98125 23.9313 7.0625 23.8688C7.1625 23.7875 7.1625 23.625 7.0625 23.4813C6.975 23.3375 6.8125 23.275 6.7125 23.3563Z" fill="white"/>
</svg>
