<svg width="22" height="23" viewBox="0 0 22 23" fill="none" xmlns="http://www.w3.org/2000/svg">
<path fill-rule="evenodd" clip-rule="evenodd" d="M2.73097 21.5482L10.9873 13.2934L19.1277 21.5012C19.7404 22.1201 20.7323 22.1201 21.3434 21.5012C21.9546 20.8838 21.9546 19.8809 21.3434 19.2635L13.214 11.0667L21.5346 2.74768C22.1551 2.1303 22.1551 1.12744 21.5346 0.51005C20.9157 -0.107336 19.9097 -0.107336 19.2907 0.51005L10.9826 8.81656L2.69806 0.463039C2.08537 -0.154347 1.09348 -0.154347 0.482367 0.463039C-0.13032 1.08043 -0.13032 2.08329 0.482366 2.70224L8.75597 11.0448L0.488633 19.3121C-0.131886 19.9295 -0.131886 20.9324 0.488633 21.5498C1.10602 22.1656 2.11045 22.1656 2.73097 21.5482Z" fill="white"/>
</svg>
